<?xml version="1.0" encoding="utf-8"?>
<!-- Generator: Adobe Illustrator 16.0.0, SVG Export Plug-In . SVG Version: 6.00 Build 0)  -->
<!DOCTYPE svg PUBLIC "-//W3C//DTD SVG 1.1//EN" "http://www.w3.org/Graphics/SVG/1.1/DTD/svg11.dtd">
<svg version="1.1" xmlns="http://www.w3.org/2000/svg" xmlns:xlink="http://www.w3.org/1999/xlink" x="0px" y="0px" width="1024px"
	 height="1024px" viewBox="0 0 1024 1024" enable-background="new 0 0 1024 1024" xml:space="preserve">
<g id="Layer_2">
	<g>
		<g>
			<g>
			</g>
			<g>
			</g>
			<g>
			</g>
			<g>
			</g>
			<g>
			</g>
			<g>
			</g>
			<g>
			</g>
			<g>
			</g>
		</g>
		<g>
			<g>
			</g>
			<g>
			</g>
			<g>
			</g>
			<g>
			</g>
			<g>
			</g>
			<g>
			</g>
			<g>
			</g>
			<g>
			</g>
		</g>
		<g>
			<g>
			</g>
			<g>
			</g>
			<g>
			</g>
			<g>
			</g>
			<g>
			</g>
			<g>
			</g>
			<g>
			</g>
			<g>
			</g>
		</g>
		<g>
			<g>
			</g>
			<g>
			</g>
			<g>
			</g>
			<g>
			</g>
			<g>
			</g>
			<g>
			</g>
			<g>
			</g>
			<g>
			</g>
		</g>
		<g>
			<g>
			</g>
			<g>
			</g>
			<g>
			</g>
			<g>
			</g>
			<g>
			</g>
			<g>
			</g>
			<g>
			</g>
			<g>
			</g>
		</g>
		<g>
			<g>
			</g>
			<g>
			</g>
			<g>
			</g>
			<g>
			</g>
			<g>
			</g>
			<g>
			</g>
			<g>
			</g>
			<g>
			</g>
		</g>
		<g>
			<g>
			</g>
			<g>
			</g>
			<g>
			</g>
			<g>
			</g>
			<g>
			</g>
			<g>
			</g>
			<g>
			</g>
			<g>
			</g>
		</g>
		<g>
			<g>
			</g>
			<g>
			</g>
			<g>
			</g>
			<g>
			</g>
			<g>
			</g>
			<g>
			</g>
			<g>
			</g>
			<g>
			</g>
		</g>
	</g>
</g>
<g id="Layer_3">
	<g>
		<path d="M724.996,883.755c0-44.536,30.999-76.392,75.402-76.392c44.398,0,73.86,31.855,74.627,76.392
			c0,43.558-29.245,76.245-74.627,76.245C755.229,960,724.996,927.313,724.996,883.755z M752.618,765.51l-19.315-379.705h133.403
			L848.174,765.51H752.618z"/>
	</g>
	<g>
		<path d="M586.344,948.89c-48.43-48.437-75.103-112.818-75.103-181.286c0-60.846,21.32-116.797,56.864-160.808
			c-16.252-7.764-21.629-10.983-21.629-10.983l-0.748-83.632c0,0,32.66-25.09,42.818-103.791
			c20.362,5.901,41.861-30.521,43.027-49.678c1.093-18.439-2.88-69.748-27.767-64.52c5.063-38.6,8.781-73.346,7.031-91.711
			c-6.53-67.151-72.681-138.074-174.377-138.074c-101.742,0-167.937,70.923-174.423,138.074
			c-1.795,18.365,1.886,53.111,6.987,91.711c-24.88-5.229-28.897,46.08-27.723,64.52c1.212,19.157,22.621,55.579,43.027,49.678
			c10.159,78.701,42.818,103.791,42.818,103.791l-0.793,83.632c0,0-20.661,12.635-107.846,48.885
			c-87.229,36.385-175.297,61.848-201.562,102.707C-6.51,784.035,0.515,960,0.515,960h435.947h161.728
			C594.147,956.43,590.19,952.736,586.344,948.89z"/>
	</g>
</g>
</svg>
