<?xml version="1.0" encoding="utf-8"?>
<!-- Generator: Adobe Illustrator 18.1.1, SVG Export Plug-In . SVG Version: 6.00 Build 0)  -->
<!DOCTYPE svg PUBLIC "-//W3C//DTD SVG 1.1//EN" "http://www.w3.org/Graphics/SVG/1.1/DTD/svg11.dtd">
<svg version="1.1" id="Layer_1" xmlns="http://www.w3.org/2000/svg" xmlns:xlink="http://www.w3.org/1999/xlink" x="0px" y="0px"
	 viewBox="0 0 294.9 200.3" enable-background="new 0 0 294.9 200.3" xml:space="preserve">
<rect fill="#FFFFFF" width="294.9" height="200.3"/>
<path fill="#FFFFFF" d="M147.5,102"/>
<rect x="5.7" y="5.5" fill="#034EA2" width="283.6" height="189.1"/>
<path fill="#034EA2" d="M147.5,100"/>
<polyline fill="#FFF200" points="141.4,46.7 147.4,42.3 153.4,46.7 151.1,39.6 157.2,35.3 149.7,35.3 147.4,28.1 145.1,35.3 
	137.6,35.3 143.7,39.6 141.4,46.7 "/>
<polyline fill="#FFF200" points="110.5,55 116.4,50.6 122.4,55 120.2,47.9 126.2,43.6 118.7,43.6 116.4,36.4 114.1,43.6 106.7,43.6 
	112.7,47.9 110.5,55 "/>
<polyline fill="#FFF200" points="93.8,59.1 91.5,66.3 84,66.3 90.1,70.7 87.8,77.7 93.8,73.4 99.8,77.7 97.5,70.7 103.6,66.3 
	96.1,66.3 93.8,59.1 "/>
<polyline fill="#FFF200" points="85.5,104.3 91.5,108.6 89.2,101.6 95.3,97.2 87.8,97.2 85.5,90.1 83.2,97.2 75.7,97.2 81.8,101.6 
	79.5,108.6 85.5,104.3 "/>
<polyline fill="#FFF200" points="96.1,128.2 93.8,121.1 91.5,128.3 84,128.2 90.1,132.6 87.8,139.7 93.8,135.3 99.8,139.7 
	97.5,132.6 103.6,128.2 96.1,128.2 "/>
<polyline fill="#FFF200" points="118.8,150.9 116.5,143.8 114.2,151 106.7,150.9 112.8,155.3 110.5,162.4 116.5,158 122.5,162.4 
	120.2,155.3 126.3,150.9 118.8,150.9 "/>
<polyline fill="#FFF200" points="149.7,159.2 147.4,152 145.1,159.2 137.6,159.2 143.7,163.5 141.4,170.6 147.4,166.2 153.4,170.6 
	151.1,163.5 157.2,159.2 149.7,159.2 "/>
<polyline fill="#FFF200" points="180.6,150.9 178.4,143.8 176.1,151 168.6,150.9 174.6,155.3 172.4,162.4 178.4,158 184.3,162.4 
	182.1,155.3 188.1,150.9 180.6,150.9 "/>
<polyline fill="#FFF200" points="203.4,128.2 201.1,121.1 198.8,128.3 191.3,128.2 197.4,132.6 195.1,139.7 201.1,135.3 207,139.7 
	204.8,132.6 210.8,128.2 203.4,128.2 "/>
<polyline fill="#FFF200" points="219.1,97.1 211.6,97.1 209.3,90 207,97.1 199.5,97.1 205.6,101.5 203.3,108.6 209.3,104.2 
	215.3,108.6 213,101.5 219.1,97.1 "/>
<polyline fill="#FFF200" points="195.1,77.6 201.1,73.3 207,77.6 204.8,70.6 210.8,66.2 203.4,66.2 201.1,59 198.8,66.2 191.3,66.2 
	197.4,70.6 195.1,77.6 "/>
<polyline fill="#FFF200" points="178.4,36.4 176.1,43.6 168.7,43.6 174.7,48 172.5,55 178.4,50.6 184.4,55 182.1,48 188.2,43.6 
	180.7,43.6 178.4,36.4 "/>
</svg>
