<?xml version="1.0" encoding="utf-8"?>
<!-- Generator: Adobe Illustrator 18.0.0, SVG Export Plug-In . SVG Version: 6.00 Build 0)  -->
<!DOCTYPE svg PUBLIC "-//W3C//DTD SVG 1.1//EN" "http://www.w3.org/Graphics/SVG/1.1/DTD/svg11.dtd">
<svg version="1.1" id="Layer_1" xmlns="http://www.w3.org/2000/svg" xmlns:xlink="http://www.w3.org/1999/xlink" x="0px" y="0px"
	 viewBox="0 0 432 134.8" enable-background="new 0 0 432 134.8" xml:space="preserve">
<path fill="#939598" d="M171.5,68.1c-0.1,1-0.2,2-0.2,3c0,1,0.1,2,0.2,3c1.4,14.4,12.2,26.4,27,31c-12.8-6.5-21.6-19.3-21.6-34.1
	c0-14.8,8.8-27.6,21.6-34.1C183.7,41.7,172.8,53.7,171.5,68.1z"/>
<path fill="#F7941E" d="M166.6,73.6c0-19.4,11.3-36.2,27.9-44.6c-19.1,6.1-33.1,21.6-35,40.3l-12.7,4.3l12.7,4.3
	c1.9,18.7,15.9,34.2,35,40.3C178,109.8,166.6,93,166.6,73.6z"/>
<path fill="#808080" d="M216.5,14.9l-4.4-12.9l-4.4,12.9c-20.8,1.8-38.1,15.8-44.8,35c9.3-16.6,27.8-27.9,49.2-27.9
	c19.5,0,36.6,9.5,46.5,23.7c0.3,0,0.7,0.1,1,0.1C252.1,28.7,235.8,16.5,216.5,14.9z"/>
<path fill="#B3B3B3" d="M216.2,112.8c-19.9,0-37.2-11.3-45.9-27.9c6.3,19.2,22.4,33.2,41.8,35l4.1,12.9l4.1-12.9
	c16.8-1.5,31.1-12.2,38.7-27.5c-0.6,0.1-1.2,0.1-1.8,0.1C247.7,104.8,232.9,112.8,216.2,112.8z"/>
<path fill="#B3B3B3" d="M217.2,26.6c-16.4,0-30.9,7.8-39.4,20.6c0,0,22.9-25.5,57-12c6.5,2.6,11.1,8,13.8,12
	c2.1-0.9,4.4-1.4,6.8-1.5C246.9,33.9,232.9,26.6,217.2,26.6z"/>
<path fill="#F7941E" d="M237,99.1C205,114,183,83.2,183,83.2c8.2,15.9,22.2,25.6,38.1,25.6c12.6,0,24-6.2,32.3-16.6
	c-2.1-0.3-4.1-1-6-1.9C244.7,93.7,241.3,97.2,237,99.1z"/>
<g>
	<g>
		<g>
			<path fill="#58595B" d="M34,64.5c-2.3,2.1-5.5,2.9-9.5,2.9h-5V82h-6.9V44.4h11.7c3.6,0,6.8,0.7,9.1,2.6c2.4,2,3.7,4.9,3.7,8.7
				C37.2,59.5,36.1,62.5,34,64.5z M30.1,56c0.1-4.9-3.9-6.2-8-5.9h-2.5v11.7h2.7c2.1,0,4.1-0.1,5.7-1.2C29.3,59.6,30,58.1,30.1,56
				L30.1,56z"/>
			<path fill="#58595B" d="M19.8,82.2h-7.4v-38h11.9c4.1,0,7.1,0.9,9.3,2.7c2.5,2.1,3.8,5.2,3.8,8.9c0,3.8-1.1,6.8-3.3,8.8
				c-2.2,2.1-5.3,3-9.6,3h-4.7V82.2z M13,81.7h6.4V67.1h5.2c4.2,0,7.2-0.9,9.3-2.9c2-1.9,3.1-4.9,3.1-8.5c0-3.6-1.3-6.5-3.6-8.5
				c-2.1-1.7-5-2.6-9-2.6H13V81.7z M22.3,62h-2.9V49.8h2.8c0.3,0,0.6,0,1,0c2.5,0,4.5,0.7,5.8,1.9c1,1,1.5,2.5,1.5,4.3l0,0.2h0
				c-0.1,2-0.8,3.5-2.2,4.5C26.4,61.9,24.4,62,22.3,62z M19.8,61.5h2.4c2.1,0,4-0.1,5.5-1.2c1.3-0.9,2-2.4,2-4.3v-0.2h0.1
				c0-1.6-0.5-2.8-1.3-3.7c-1.1-1.2-3-1.8-5.4-1.8c-0.3,0-0.6,0-0.9,0l-2.3,0V61.5z"/>
		</g>
		<g>
			<path fill="#58595B" d="M52.1,54.2c2.6,0,5,0.6,7.2,1.9c2.3,1.3,4,3,5.3,5.2c1.3,2.2,1.9,4.6,1.9,7.1c0,2.6-0.6,5-1.9,7.2
				c-1.3,2.2-3,4-5.2,5.2c-2.2,1.3-4.6,1.9-7.3,1.9c-3.9,0-7.2-1.4-10-4.1c-2.8-2.8-4.1-6.1-4.1-10.1c0-4.2,1.6-7.8,4.7-10.6
				C45.4,55.4,48.6,54.2,52.1,54.2z M52.2,60.6c-2.1,0-3.9,0.7-5.3,2.2c-1.4,1.5-2.1,3.4-2.1,5.6c0,2.4,0.7,4.3,2.1,5.7
				c1.4,1.5,3.1,2.2,5.3,2.2c2.1,0,3.9-0.7,5.3-2.2c1.4-1.5,2.1-3.4,2.1-5.7c0-2.3-0.7-4.2-2.1-5.7C56.2,61.3,54.4,60.6,52.2,60.6z"
				/>
		</g>
		<g>
			<path fill="#58595B" d="M69.3,44.4h6.8V82h-6.8V44.4z"/>
		</g>
		<g>
			<path fill="#58595B" d="M83.9,43.7c1.2,0,2.2,0.4,3.1,1.3c0.9,0.9,1.3,1.9,1.3,3.1c0,1.2-0.4,2.2-1.3,3.1c-0.8,0.9-1.9,1.3-3,1.3
				c-1.2,0-2.2-0.4-3.1-1.3c-0.9-0.9-1.3-1.9-1.3-3.2c0-1.2,0.4-2.2,1.3-3.1C81.7,44.1,82.7,43.7,83.9,43.7z M80.5,54.9h6.8V82h-6.8
				V54.9z"/>
		</g>
		<g>
			<path fill="#58595B" d="M119,60.4l-5.7,3.1c-1.1-1.1-2.1-1.9-3.2-2.3c-1-0.4-2.3-0.6-3.7-0.6c-2.5,0-4.6,0.8-6.2,2.3
				c-1.6,1.5-2.4,3.5-2.4,5.8c0,2.3,0.8,4.2,2.3,5.6c1.5,1.5,3.5,2.2,6,2.2c3,0,5.4-1,7.1-3.1l5.4,3.7c-2.9,3.8-7,5.7-12.3,5.7
				c-4.8,0-8.5-1.4-11.2-4.2c-2.7-2.8-4.1-6.1-4.1-9.9c0-2.6,0.7-5,2-7.3c1.3-2.2,3.1-3.9,5.5-5.2c2.4-1.3,5-1.9,7.9-1.9
				c2.7,0,5.1,0.5,7.3,1.6C115.9,56.9,117.6,58.4,119,60.4z"/>
		</g>
		<g>
			<path fill="#58595B" d="M119,54.9h7l7,17l7.8-17h7l-17,37h-7l5.6-11.9L119,54.9z"/>
		</g>
	</g>
	<g>
		<g>
			<g>
				<path fill="#58595B" d="M238.4,51.4l-6.5,6.2c-4.4-4.7-9.4-7-14.9-7c-4.7,0-8.6,1.6-11.8,4.8c-3.2,3.2-4.8,7.1-4.8,11.8
					c0,3.3,0.7,6.2,2.1,8.7c1.4,2.5,3.4,4.5,6,6c2.6,1.4,5.5,2.2,8.6,2.2c2.7,0,5.2-0.5,7.4-1.5c2.2-1,4.7-2.8,7.4-5.5l6.3,6.6
					c-3.6,3.5-7,6-10.2,7.3c-3.2,1.4-6.9,2-11,2c-7.6,0-13.8-2.4-18.7-7.2c-4.8-4.8-7.3-11-7.3-18.5c0-4.9,1.1-9.2,3.3-13
					c2.2-3.8,5.4-6.8,9.5-9.1c4.1-2.3,8.5-3.5,13.3-3.5c4,0,7.9,0.9,11.6,2.6C232.4,45.9,235.7,48.3,238.4,51.4z"/>
			</g>
		</g>
	</g>
	<g>
		<g>
			<g>
				<path fill="#58595B" d="M253.5,54.2c2.6,0,5,0.6,7.2,1.9c2.3,1.3,4,3,5.3,5.2c1.3,2.2,1.9,4.6,1.9,7.1c0,2.6-0.6,5-1.9,7.2
					c-1.3,2.2-3,4-5.2,5.2c-2.2,1.3-4.6,1.9-7.3,1.9c-3.9,0-7.2-1.4-10-4.1c-2.8-2.8-4.1-6.1-4.1-10.1c0-4.2,1.6-7.8,4.7-10.6
					C246.8,55.4,249.9,54.2,253.5,54.2z M253.6,60.6c-2.1,0-3.9,0.7-5.3,2.2c-1.4,1.5-2.1,3.4-2.1,5.6c0,2.4,0.7,4.3,2.1,5.7
					c1.4,1.5,3.1,2.2,5.3,2.2c2.1,0,3.9-0.7,5.3-2.2c1.4-1.5,2.1-3.4,2.1-5.7c0-2.3-0.7-4.2-2.1-5.7
					C257.5,61.3,255.7,60.6,253.6,60.6z"/>
				<path fill="#58595B" d="M272.3,54.9h6.8V58c1.2-1.3,2.5-2.2,3.9-2.9c1.4-0.6,3-0.9,4.7-0.9c1.7,0,3.2,0.4,4.6,1.2
					c1.4,0.8,2.5,2,3.3,3.6c1.1-1.6,2.4-2.8,4-3.6c1.6-0.8,3.3-1.2,5.1-1.2c1.9,0,3.6,0.4,5.1,1.3c1.5,0.9,2.5,2.1,3.2,3.5
					c0.6,1.4,1,3.8,1,7.1V82H307V68.2c0-3.1-0.4-5.2-1.1-6.2c-0.8-1.1-1.9-1.6-3.4-1.6c-1.2,0-2.2,0.3-3.1,1
					c-0.9,0.7-1.6,1.6-2.1,2.8c-0.4,1.2-0.7,3.1-0.7,5.6V82h-6.9V68.9c0-2.4-0.2-4.2-0.5-5.3c-0.4-1.1-0.9-1.9-1.6-2.4
					c-0.7-0.5-1.6-0.8-2.6-0.8c-1.1,0-2.2,0.3-3.1,1c-0.9,0.7-1.6,1.6-2.1,2.8c-0.5,1.2-0.7,3.1-0.7,5.7V82h-6.8V54.9z"/>
				<path fill="#58595B" d="M326.1,54.9v3c1.2-1.2,2.6-2.2,4-2.8c1.4-0.6,3-0.9,4.6-0.9c3.5,0,6.5,1.3,9,4c2.5,2.7,3.7,6.1,3.7,10.3
					c0,4-1.3,7.4-3.8,10.1c-2.6,2.7-5.6,4.1-9.1,4.1c-1.6,0-3-0.3-4.4-0.8c-1.3-0.6-2.7-1.5-4-2.7v12.8h-6.8v-37H326.1z M333.2,60.5
					c-2.1,0-3.9,0.7-5.3,2.2c-1.4,1.5-2.1,3.4-2.1,5.7c0,2.4,0.7,4.4,2.1,5.8c1.4,1.5,3.2,2.2,5.3,2.2c2.1,0,3.8-0.8,5.2-2.3
					c1.4-1.5,2.1-3.4,2.1-5.8c0-2.3-0.7-4.2-2.1-5.7C337.1,61.2,335.4,60.5,333.2,60.5z"/>
				<path fill="#58595B" d="M372,54.9h6.8V82H372v-2.9c-1.3,1.3-2.7,2.2-4,2.7c-1.3,0.6-2.8,0.8-4.3,0.8c-3.5,0-6.5-1.4-9.1-4.1
					c-2.6-2.7-3.8-6.1-3.8-10.1c0-4.2,1.2-7.6,3.7-10.3c2.5-2.7,5.5-4,9-4c1.6,0,3.2,0.3,4.6,0.9c1.4,0.6,2.7,1.5,4,2.8V54.9z
					 M364.9,60.5c-2.1,0-3.8,0.7-5.2,2.2c-1.4,1.5-2.1,3.4-2.1,5.7c0,2.3,0.7,4.3,2.1,5.8c1.4,1.5,3.2,2.3,5.2,2.3
					c2.1,0,3.9-0.7,5.3-2.2c1.4-1.5,2.1-3.4,2.1-5.8c0-2.4-0.7-4.3-2.1-5.7C368.8,61.2,367,60.5,364.9,60.5z"/>
				<path fill="#58595B" d="M401.3,58.7l-4.2,4.2c-1.7-1.7-3.3-2.5-4.7-2.5c-0.8,0-1.4,0.2-1.8,0.5c-0.4,0.3-0.6,0.7-0.6,1.2
					c0,0.4,0.1,0.7,0.4,1c0.3,0.3,1,0.7,2,1.3l2.5,1.2c2.6,1.3,4.4,2.6,5.4,4c1,1.3,1.5,2.9,1.5,4.7c0,2.4-0.9,4.4-2.7,6
					c-1.8,1.6-4.1,2.4-7.1,2.4c-4,0-7.1-1.5-9.5-4.6l4.2-4.6c0.8,0.9,1.7,1.7,2.8,2.3c1.1,0.6,2,0.9,2.9,0.9c0.9,0,1.6-0.2,2.2-0.6
					c0.5-0.4,0.8-0.9,0.8-1.5c0-1-1-2.1-3-3.1l-2.3-1.1c-4.4-2.2-6.6-5-6.6-8.3c0-2.1,0.8-4,2.5-5.5c1.7-1.5,3.8-2.3,6.3-2.3
					c1.8,0,3.4,0.4,5,1.2C398.9,56.1,400.2,57.2,401.3,58.7z"/>
				<path fill="#58595B" d="M422.7,58.7l-4.2,4.2c-1.7-1.7-3.3-2.5-4.7-2.5c-0.8,0-1.4,0.2-1.8,0.5c-0.4,0.3-0.6,0.7-0.6,1.2
					c0,0.4,0.1,0.7,0.4,1c0.3,0.3,1,0.7,2,1.3l2.5,1.2c2.6,1.3,4.4,2.6,5.4,4c1,1.3,1.5,2.9,1.5,4.7c0,2.4-0.9,4.4-2.7,6
					c-1.8,1.6-4.1,2.4-7.1,2.4c-4,0-7.1-1.5-9.5-4.6l4.2-4.6c0.8,0.9,1.7,1.7,2.8,2.3c1.1,0.6,2,0.9,2.9,0.9c0.9,0,1.6-0.2,2.2-0.6
					c0.5-0.4,0.8-0.9,0.8-1.5c0-1-1-2.1-3-3.1l-2.3-1.1c-4.4-2.2-6.6-5-6.6-8.3c0-2.1,0.8-4,2.5-5.5c1.7-1.5,3.8-2.3,6.3-2.3
					c1.8,0,3.4,0.4,5,1.2C420.3,56.1,421.6,57.2,422.7,58.7z"/>
			</g>
		</g>
	</g>
</g>
</svg>
