<?xml version="1.0" encoding="utf-8"?>
<!-- Generator: Adobe Illustrator 19.0.0, SVG Export Plug-In . SVG Version: 6.00 Build 0)  -->
<svg version="1.1" id="Layer_1" xmlns="http://www.w3.org/2000/svg" xmlns:xlink="http://www.w3.org/1999/xlink" x="0px" y="0px"
	 viewBox="-89 329.2 432 134.8" style="enable-background:new -89 329.2 432 134.8;" xml:space="preserve">
<style type="text/css">
	.st0{display:none;}
	.st1{display:inline;fill:#878787;}
	.st2{fill:#9E9E9E;}
	.st3{fill:#F7941E;}
	.st4{fill:#E2E2E2;}
	.st5{fill:#B7B7B7;}
	.st6{fill:#FFFFFF;}
</style>
<g id="Layer_2" class="st0">
	<rect x="274" y="658.4" class="st1" width="432" height="134.8"/>
</g>
<g id="Layer_1_1_">
</g>
<g id="Layer_3">
	<path class="st2" d="M80.7,395.3c-0.1,1-0.2,2-0.2,3s0.1,2,0.2,3c1.4,14.4,12.2,26.4,27,31c-12.8-6.5-21.6-19.3-21.6-34.1
		s8.8-27.6,21.6-34.1C92.9,368.9,82,380.9,80.7,395.3z"/>
	<path class="st3" d="M75.8,400.8c0-19.4,11.3-36.2,27.9-44.6c-19.1,6.1-33.1,21.6-35,40.3L56,400.8l12.7,4.3
		c1.9,18.7,15.9,34.2,35,40.3C87.2,437,75.8,420.2,75.8,400.8z"/>
	<path class="st4" d="M125.7,342.1l-4.4-12.9l-4.4,12.9c-20.8,1.8-38.1,15.8-44.8,35c9.3-16.6,27.8-27.9,49.2-27.9
		c19.5,0,36.6,9.5,46.5,23.7c0.3,0,0.7,0.1,1,0.1C161.3,355.9,145,343.7,125.7,342.1z"/>
	<path class="st5" d="M125.4,440c-19.9,0-37.2-11.3-45.9-27.9c6.3,19.2,22.4,33.2,41.8,35l4.1,12.9l4.1-12.9
		c16.8-1.5,31.1-12.2,38.7-27.5c-0.6,0.1-1.2,0.1-1.8,0.1C156.9,432,142.1,440,125.4,440z"/>
	<path class="st5" d="M126.4,353.8c-16.4,0-30.9,7.8-39.4,20.6c0,0,22.9-25.5,57-12c6.5,2.6,11.1,8,13.8,12c2.1-0.9,4.4-1.4,6.8-1.5
		C156.1,361.1,142.1,353.8,126.4,353.8z"/>
	<path class="st3" d="M146.2,426.3c-32,14.9-54-15.9-54-15.9c8.2,15.9,22.2,25.6,38.1,25.6c12.6,0,24-6.2,32.3-16.6
		c-2.1-0.3-4.1-1-6-1.9C153.9,420.9,150.5,424.4,146.2,426.3z"/>
	<g>
		<g>
			<g>
				<path class="st6" d="M-56.8,391.7c-2.3,2.1-5.5,2.9-9.5,2.9h-5v14.6h-6.9v-37.6h11.7c3.6,0,6.8,0.7,9.1,2.6
					c2.4,2,3.7,4.9,3.7,8.7C-53.6,386.7-54.7,389.7-56.8,391.7z M-60.7,383.2c0.1-4.9-3.9-6.2-8-5.9h-2.5V389h2.7
					c2.1,0,4.1-0.1,5.7-1.2C-61.5,386.8-60.8,385.3-60.7,383.2L-60.7,383.2z"/>
				<path class="st6" d="M-71,409.4h-7.4v-38h11.9c4.1,0,7.1,0.9,9.3,2.7c2.5,2.1,3.8,5.2,3.8,8.9c0,3.8-1.1,6.8-3.3,8.8
					c-2.2,2.1-5.3,3-9.6,3H-71L-71,409.4L-71,409.4z M-77.8,408.9h6.4v-14.6h5.2c4.2,0,7.2-0.9,9.3-2.9c2-1.9,3.1-4.9,3.1-8.5
					s-1.3-6.5-3.6-8.5c-2.1-1.7-5-2.6-9-2.6h-11.4V408.9z M-68.5,389.2h-2.9V377h2.8c0.3,0,0.6,0,1,0c2.5,0,4.5,0.7,5.8,1.9
					c1,1,1.5,2.5,1.5,4.3v0.2l0,0c-0.1,2-0.8,3.5-2.2,4.5C-64.4,389.1-66.4,389.2-68.5,389.2z M-71,388.7h2.4c2.1,0,4-0.1,5.5-1.2
					c1.3-0.9,2-2.4,2-4.3V383h0.1c0-1.6-0.5-2.8-1.3-3.7c-1.1-1.2-3-1.8-5.4-1.8c-0.3,0-0.6,0-0.9,0h-2.3v11.2H-71z"/>
			</g>
			<g>
				<path class="st6" d="M-38.7,381.4c2.6,0,5,0.6,7.2,1.9c2.3,1.3,4,3,5.3,5.2s1.9,4.6,1.9,7.1c0,2.6-0.6,5-1.9,7.2s-3,4-5.2,5.2
					c-2.2,1.3-4.6,1.9-7.3,1.9c-3.9,0-7.2-1.4-10-4.1c-2.8-2.8-4.1-6.1-4.1-10.1c0-4.2,1.6-7.8,4.7-10.6
					C-45.4,382.6-42.2,381.4-38.7,381.4z M-38.6,387.8c-2.1,0-3.9,0.7-5.3,2.2s-2.1,3.4-2.1,5.6c0,2.4,0.7,4.3,2.1,5.7
					c1.4,1.5,3.1,2.2,5.3,2.2c2.1,0,3.9-0.7,5.3-2.2s2.1-3.4,2.1-5.7c0-2.3-0.7-4.2-2.1-5.7C-34.6,388.5-36.4,387.8-38.6,387.8z"/>
			</g>
			<g>
				<path class="st6" d="M-21.5,371.6h6.8v37.6h-6.8V371.6z"/>
			</g>
			<g>
				<path class="st6" d="M-6.9,370.9c1.2,0,2.2,0.4,3.1,1.3s1.3,1.9,1.3,3.1s-0.4,2.2-1.3,3.1c-0.8,0.9-1.9,1.3-3,1.3
					c-1.2,0-2.2-0.4-3.1-1.3s-1.3-1.9-1.3-3.2c0-1.2,0.4-2.2,1.3-3.1C-9.1,371.3-8.1,370.9-6.9,370.9z M-10.3,382.1h6.8v27.1h-6.8
					V382.1z"/>
			</g>
			<g>
				<path class="st6" d="M28.2,387.6l-5.7,3.1c-1.1-1.1-2.1-1.9-3.2-2.3c-1-0.4-2.3-0.6-3.7-0.6c-2.5,0-4.6,0.8-6.2,2.3
					S7,393.6,7,395.9s0.8,4.2,2.3,5.6c1.5,1.5,3.5,2.2,6,2.2c3,0,5.4-1,7.1-3.1l5.4,3.7c-2.9,3.8-7,5.7-12.3,5.7
					c-4.8,0-8.5-1.4-11.2-4.2c-2.7-2.8-4.1-6.1-4.1-9.9c0-2.6,0.7-5,2-7.3c1.3-2.2,3.1-3.9,5.5-5.2c2.4-1.3,5-1.9,7.9-1.9
					c2.7,0,5.1,0.5,7.3,1.6C25.1,384.1,26.8,385.6,28.2,387.6z"/>
			</g>
			<g>
				<path class="st6" d="M28.2,382.1h7l7,17l7.8-17h7l-17,37h-7l5.6-11.9L28.2,382.1z"/>
			</g>
		</g>
		<g>
			<g>
				<g>
					<path class="st6" d="M147.6,378.6l-6.5,6.2c-4.4-4.7-9.4-7-14.9-7c-4.7,0-8.6,1.6-11.8,4.8c-3.2,3.2-4.8,7.1-4.8,11.8
						c0,3.3,0.7,6.2,2.1,8.7s3.4,4.5,6,6c2.6,1.4,5.5,2.2,8.6,2.2c2.7,0,5.2-0.5,7.4-1.5s4.7-2.8,7.4-5.5l6.3,6.6
						c-3.6,3.5-7,6-10.2,7.3c-3.2,1.4-6.9,2-11,2c-7.6,0-13.8-2.4-18.7-7.2c-4.8-4.8-7.3-11-7.3-18.5c0-4.9,1.1-9.2,3.3-13
						s5.4-6.8,9.5-9.1c4.1-2.3,8.5-3.5,13.3-3.5c4,0,7.9,0.9,11.6,2.6C141.6,373.1,144.9,375.5,147.6,378.6z"/>
				</g>
			</g>
		</g>
		<g>
			<g>
				<g>
					<path class="st6" d="M162.7,381.4c2.6,0,5,0.6,7.2,1.9c2.3,1.3,4,3,5.3,5.2s1.9,4.6,1.9,7.1c0,2.6-0.6,5-1.9,7.2
						c-1.3,2.2-3,4-5.2,5.2c-2.2,1.3-4.6,1.9-7.3,1.9c-3.9,0-7.2-1.4-10-4.1c-2.8-2.8-4.1-6.1-4.1-10.1c0-4.2,1.6-7.8,4.7-10.6
						C156,382.6,159.1,381.4,162.7,381.4z M162.8,387.8c-2.1,0-3.9,0.7-5.3,2.2c-1.4,1.5-2.1,3.4-2.1,5.6c0,2.4,0.7,4.3,2.1,5.7
						c1.4,1.5,3.1,2.2,5.3,2.2c2.1,0,3.9-0.7,5.3-2.2c1.4-1.5,2.1-3.4,2.1-5.7c0-2.3-0.7-4.2-2.1-5.7
						C166.7,388.5,164.9,387.8,162.8,387.8z"/>
					<path class="st6" d="M181.5,382.1h6.8v3.1c1.2-1.3,2.5-2.2,3.9-2.9c1.4-0.6,3-0.9,4.7-0.9s3.2,0.4,4.6,1.2
						c1.4,0.8,2.5,2,3.3,3.6c1.1-1.6,2.4-2.8,4-3.6c1.6-0.8,3.3-1.2,5.1-1.2c1.9,0,3.6,0.4,5.1,1.3s2.5,2.1,3.2,3.5
						c0.6,1.4,1,3.8,1,7.1v15.9h-7v-13.8c0-3.1-0.4-5.2-1.1-6.2c-0.8-1.1-1.9-1.6-3.4-1.6c-1.2,0-2.2,0.3-3.1,1
						c-0.9,0.7-1.6,1.6-2.1,2.8c-0.4,1.2-0.7,3.1-0.7,5.6v12.2h-6.9v-13.1c0-2.4-0.2-4.2-0.5-5.3c-0.4-1.1-0.9-1.9-1.6-2.4
						s-1.6-0.8-2.6-0.8c-1.1,0-2.2,0.3-3.1,1c-0.9,0.7-1.6,1.6-2.1,2.8c-0.5,1.2-0.7,3.1-0.7,5.7v12.1h-6.8L181.5,382.1L181.5,382.1
						z"/>
					<path class="st6" d="M235.3,382.1v3c1.2-1.2,2.6-2.2,4-2.8c1.4-0.6,3-0.9,4.6-0.9c3.5,0,6.5,1.3,9,4s3.7,6.1,3.7,10.3
						c0,4-1.3,7.4-3.8,10.1c-2.6,2.7-5.6,4.1-9.1,4.1c-1.6,0-3-0.3-4.4-0.8c-1.3-0.6-2.7-1.5-4-2.7v12.8h-6.8v-37h6.8V382.1z
						 M242.4,387.7c-2.1,0-3.9,0.7-5.3,2.2s-2.1,3.4-2.1,5.7c0,2.4,0.7,4.4,2.1,5.8c1.4,1.5,3.2,2.2,5.3,2.2s3.8-0.8,5.2-2.3
						s2.1-3.4,2.1-5.8c0-2.3-0.7-4.2-2.1-5.7C246.3,388.4,244.6,387.7,242.4,387.7z"/>
					<path class="st6" d="M281.2,382.1h6.8v27.1h-6.8v-2.9c-1.3,1.3-2.7,2.2-4,2.7c-1.3,0.6-2.8,0.8-4.3,0.8c-3.5,0-6.5-1.4-9.1-4.1
						s-3.8-6.1-3.8-10.1c0-4.2,1.2-7.6,3.7-10.3c2.5-2.7,5.5-4,9-4c1.6,0,3.2,0.3,4.6,0.9s2.7,1.5,4,2.8v-2.9H281.2z M274.1,387.7
						c-2.1,0-3.8,0.7-5.2,2.2s-2.1,3.4-2.1,5.7c0,2.3,0.7,4.3,2.1,5.8c1.4,1.5,3.2,2.3,5.2,2.3c2.1,0,3.9-0.7,5.3-2.2
						c1.4-1.5,2.1-3.4,2.1-5.8s-0.7-4.3-2.1-5.7C278,388.4,276.2,387.7,274.1,387.7z"/>
					<path class="st6" d="M310.5,385.9l-4.2,4.2c-1.7-1.7-3.3-2.5-4.7-2.5c-0.8,0-1.4,0.2-1.8,0.5c-0.4,0.3-0.6,0.7-0.6,1.2
						c0,0.4,0.1,0.7,0.4,1c0.3,0.3,1,0.7,2,1.3l2.5,1.2c2.6,1.3,4.4,2.6,5.4,4c1,1.3,1.5,2.9,1.5,4.7c0,2.4-0.9,4.4-2.7,6
						s-4.1,2.4-7.1,2.4c-4,0-7.1-1.5-9.5-4.6l4.2-4.6c0.8,0.9,1.7,1.7,2.8,2.3c1.1,0.6,2,0.9,2.9,0.9s1.6-0.2,2.2-0.6
						c0.5-0.4,0.8-0.9,0.8-1.5c0-1-1-2.1-3-3.1l-2.3-1.1c-4.4-2.2-6.6-5-6.6-8.3c0-2.1,0.8-4,2.5-5.5s3.8-2.3,6.3-2.3
						c1.8,0,3.4,0.4,5,1.2C308.1,383.3,309.4,384.4,310.5,385.9z"/>
					<path class="st6" d="M331.9,385.9l-4.2,4.2c-1.7-1.7-3.3-2.5-4.7-2.5c-0.8,0-1.4,0.2-1.8,0.5c-0.4,0.3-0.6,0.7-0.6,1.2
						c0,0.4,0.1,0.7,0.4,1c0.3,0.3,1,0.7,2,1.3l2.5,1.2c2.6,1.3,4.4,2.6,5.4,4c1,1.3,1.5,2.9,1.5,4.7c0,2.4-0.9,4.4-2.7,6
						s-4.1,2.4-7.1,2.4c-4,0-7.1-1.5-9.5-4.6l4.2-4.6c0.8,0.9,1.7,1.7,2.8,2.3c1.1,0.6,2,0.9,2.9,0.9s1.6-0.2,2.2-0.6
						c0.5-0.4,0.8-0.9,0.8-1.5c0-1-1-2.1-3-3.1l-2.3-1.1c-4.4-2.2-6.6-5-6.6-8.3c0-2.1,0.8-4,2.5-5.5s3.8-2.3,6.3-2.3
						c1.8,0,3.4,0.4,5,1.2C329.5,383.3,330.8,384.4,331.9,385.9z"/>
				</g>
			</g>
		</g>
	</g>
</g>
</svg>
