<?xml version="1.0" encoding="utf-8"?>
<!-- Generator: Adobe Illustrator 19.0.1, SVG Export Plug-In . SVG Version: 6.00 Build 0)  -->
<svg version="1.1" xmlns="http://www.w3.org/2000/svg" xmlns:xlink="http://www.w3.org/1999/xlink" x="0px" y="0px"
	 viewBox="82.5 348.6 74 79.2" style="enable-background:new 82.5 348.6 74 79.2;" xml:space="preserve">
<style type="text/css">
	.st0{display:none;}
	.st1{display:inline;fill:#878787;stroke:#000000;stroke-miterlimit:10;}
	.st2{display:inline;fill:#939598;}
	.st3{display:inline;fill:#F7941E;}
	.st4{display:inline;fill:#808080;}
	.st5{display:inline;fill:#B3B3B3;}
	.st6{fill:#F7941E;}
	.st7{display:none;fill:#FFFFFF;}
	.st8{fill:#B3B3B3;}
	.st9{fill:#808080;}
</style>
<g id="Layer_2" class="st0">
	<rect x="363" y="329.2" class="st1" width="432" height="134.8"/>
</g>
<g id="Layer_1" class="st0">
	<path class="st2" d="M82.5,397.3c-0.1,1-0.2,2-0.2,3s0.1,2,0.2,3c1.4,14.4,12.2,26.4,27,31c-12.8-6.5-21.6-19.3-21.6-34.1
		c0-14.8,8.8-27.6,21.6-34.1C94.7,370.9,83.8,382.9,82.5,397.3z"/>
	<path class="st3" d="M77.6,402.8c0-19.4,11.3-36.2,27.9-44.6c-19.1,6.1-33.1,21.6-35,40.3l-12.7,4.3l12.7,4.3
		c1.9,18.7,15.9,34.2,35,40.3C89,439,77.6,422.2,77.6,402.8z"/>
	<path class="st4" d="M127.5,344.1l-4.4-12.9l-4.4,12.9c-20.8,1.8-38.1,15.8-44.8,35c9.3-16.6,27.8-27.9,49.2-27.9
		c19.5,0,36.6,9.5,46.5,23.7c0.3,0,0.7,0.1,1,0.1C163.1,357.9,146.8,345.7,127.5,344.1z"/>
	<path class="st5" d="M127.2,442c-19.9,0-37.2-11.3-45.9-27.9c6.3,19.2,22.4,33.2,41.8,35l4.1,12.9l4.1-12.9
		c16.8-1.5,31.1-12.2,38.7-27.5c-0.6,0.1-1.2,0.1-1.8,0.1C158.7,434,143.9,442,127.2,442z"/>
	<path class="st5" d="M128.2,355.8c-16.4,0-30.9,7.8-39.4,20.6c0,0,22.9-25.5,57-12c6.5,2.6,11.1,8,13.8,12c2.1-0.9,4.4-1.4,6.8-1.5
		C157.9,363.1,143.9,355.8,128.2,355.8z"/>
	<path class="st3" d="M148,428.3c-32,14.9-54-15.9-54-15.9c8.2,15.9,22.2,25.6,38.1,25.6c12.6,0,24-6.2,32.3-16.6
		c-2.1-0.3-4.1-1-6-1.9C155.7,422.9,152.3,426.4,148,428.3z"/>
</g>
<g id="Layer_5">
	<path class="st6" d="M122.3,427.9c-13.7,0-25.3-10-27.4-23.5l-12.4-4.2l12.4-4.2c2.1-13.4,13.7-23.5,27.4-23.5
		c1.7,0,3.4,0.2,5.2,0.5l5.2,1l-5.2,1c-12.1,2.3-20.9,12.9-20.9,25.2c0,12.3,8.8,23,20.9,25.2l5.2,1l-5.2,1
		C125.7,427.7,124,427.9,122.3,427.9z"/>
</g>
<g id="Layer_4">
	<path class="st7" d="M122.3,373.5c1.7,0,3.4,0.2,5,0.5c-12.4,2.3-21.7,13.2-21.7,26.2s9.4,23.9,21.7,26.2c-1.6,0.3-3.3,0.5-5,0.5
		c-13.6,0-24.8-10.1-26.5-23.2l-10.2-3.5l10.2-3.5C97.5,383.6,108.7,373.5,122.3,373.5 M122.3,371.5c-13.9,0-25.9,10.1-28.3,23.7
		l-9.1,3.1l-5.5,1.9l5.5,1.9l9.1,3.1c2.4,13.6,14.3,23.7,28.3,23.7c1.8,0,3.6-0.2,5.3-0.5l10.4-2l-10.4-2
		c-11.6-2.2-20.1-12.4-20.1-24.3c0-11.9,8.5-22.1,20.1-24.3l10.4-2l-10.4-2C125.8,371.7,124,371.5,122.3,371.5L122.3,371.5z"/>
	<path class="st8" d="M119.3,409.1c0-11.2,9.1-20.4,20.4-20.4c3.8,0,7.3,1.1,10.3,2.8c-3.2-7.1-10.3-12-18.6-12
		c-11.2,0-20.4,9.1-20.4,20.4c0,7.5,4,14,10,17.5C120,414.8,119.3,412,119.3,409.1z"/>
	<path class="st9" d="M125.7,358.8l-3.5-10.1l-3.5,10.1c-17.1,1.7-30.6,16-30.9,33.5l1.5-0.5c3.7-14.9,17.1-26,33.1-26
		c17.7,0,32.2,13.4,33.9,30.6c0.1-1.1,0.2-2.3,0.2-3.5C156.6,375.1,143.1,360.5,125.7,358.8z"/>
</g>
<g id="Layer_3">
</g>
</svg>
