<?xml version="1.0" encoding="utf-8"?>
<!-- Generator: Adobe Illustrator 16.0.4, SVG Export Plug-In . SVG Version: 6.00 Build 0)  -->
<!DOCTYPE svg PUBLIC "-//W3C//DTD SVG 1.1//EN" "http://www.w3.org/Graphics/SVG/1.1/DTD/svg11.dtd">
<svg version="1.1" id="Layer_1" xmlns="http://www.w3.org/2000/svg" xmlns:xlink="http://www.w3.org/1999/xlink" x="0px" y="0px"
	 width="512px" height="400px" viewBox="0 50.5 512 400" enable-background="new 0 50.5 512 400" xml:space="preserve">
<path fill="#939598" d="M203.259,256.83c-0.119,1.185-0.237,2.37-0.237,3.555c0,1.186,0.118,2.371,0.237,3.557
	c1.659,17.066,14.459,31.288,32,36.74c-15.17-7.704-25.6-22.874-25.6-40.415c0-17.541,10.43-32.711,25.6-40.415
	C217.719,225.541,204.8,239.763,203.259,256.83z"/>
<path fill="#F7941E" d="M197.452,263.348c0-22.992,13.393-42.903,33.067-52.859c-22.637,7.23-39.229,25.6-41.481,47.763
	l-15.052,5.096l15.052,5.097c2.252,22.163,18.844,40.533,41.481,47.763C210.963,306.252,197.452,286.341,197.452,263.348z"/>
<path fill="#FFFFFF" d="M256.593,193.778l-5.215-15.289l-5.215,15.289c-24.652,2.133-45.156,18.726-53.096,41.481
	c11.022-19.674,32.948-33.067,58.311-33.067c23.11,0,43.378,11.259,55.111,28.089c0.355,0,0.829,0.119,1.185,0.119
	C298.785,210.133,279.467,195.674,256.593,193.778z"/>
<path fill="#B3B3B3" d="M256.237,309.808c-23.585,0-44.089-13.393-54.4-33.067c7.467,22.756,26.548,39.349,49.541,41.482
	l4.859,15.289l4.859-15.289c19.912-1.778,36.859-14.459,45.867-32.593c-0.711,0.118-1.422,0.118-2.133,0.118
	C293.57,300.326,276.029,309.808,256.237,309.808z"/>
<path fill="#B3B3B3" d="M257.422,207.645c-19.437,0-36.622,9.244-46.696,24.415c0,0,27.141-30.222,67.555-14.222
	c7.704,3.082,13.156,9.481,16.355,14.222c2.489-1.066,5.215-1.659,8.06-1.778C292.622,216.296,276.029,207.645,257.422,207.645z"/>
<path fill="#F7941E" d="M280.889,293.57c-37.926,17.659-64-18.844-64-18.844c9.719,18.844,26.312,30.34,45.156,30.34
	c14.933,0,28.443-7.348,38.281-19.674c-2.489-0.355-4.859-1.186-7.111-2.252C290.015,287.17,285.985,291.318,280.889,293.57z"/>
<g>
	<g>
		<g>
			<path fill="#FFFFFF" d="M40.296,252.563C37.57,255.052,33.778,256,29.037,256h-5.926v17.304h-8.178v-44.563H28.8
				c4.267,0,8.06,0.83,10.785,3.082c2.845,2.37,4.385,5.808,4.385,10.311C44.089,246.637,42.785,250.192,40.296,252.563z
				 M35.674,242.489c0.118-5.807-4.623-7.348-9.482-6.993h-2.963v13.867h3.2c2.489,0,4.859-0.118,6.755-1.422
				C34.726,246.755,35.556,244.978,35.674,242.489L35.674,242.489z"/>
			<path fill="#FFFFFF" d="M23.467,273.541h-8.771v-45.037H28.8c4.859,0,8.415,1.066,11.022,3.2
				c2.963,2.489,4.503,6.163,4.503,10.548c0,4.503-1.303,8.059-3.911,10.43c-2.607,2.489-6.282,3.556-11.378,3.556h-5.57V273.541z
				 M15.407,272.948h7.585v-17.304h6.163c4.978,0,8.533-1.067,11.022-3.437c2.371-2.252,3.674-5.808,3.674-10.074
				s-1.541-7.704-4.267-10.074c-2.489-2.015-5.926-3.082-10.667-3.082H15.407V272.948z M26.43,249.6h-3.437v-14.459h3.318
				c0.355,0,0.711,0,1.185,0c2.963,0,5.333,0.83,6.875,2.252c1.185,1.185,1.777,2.963,1.777,5.096v0.237l0,0
				c-0.118,2.37-0.948,4.148-2.607,5.333C31.289,249.481,28.918,249.6,26.43,249.6z M23.467,249.007h2.844
				c2.489,0,4.741-0.119,6.519-1.422c1.541-1.066,2.371-2.844,2.371-5.096v-0.237h0.118c0-1.896-0.592-3.318-1.541-4.385
				c-1.304-1.422-3.556-2.133-6.4-2.133c-0.355,0-0.711,0-1.067,0h-2.726v13.274H23.467z"/>
		</g>
		<g>
			<path fill="#FFFFFF" d="M61.748,240.355c3.082,0,5.926,0.711,8.533,2.252c2.726,1.541,4.741,3.556,6.282,6.163
				s2.252,5.452,2.252,8.415c0,3.081-0.711,5.926-2.252,8.533s-3.556,4.74-6.163,6.162c-2.607,1.541-5.452,2.252-8.652,2.252
				c-4.622,0-8.533-1.658-11.852-4.859c-3.319-3.318-4.859-7.229-4.859-11.97c0-4.978,1.896-9.245,5.57-12.563
				C53.808,241.778,57.6,240.355,61.748,240.355z M61.867,247.941c-2.489,0-4.622,0.83-6.282,2.607
				c-1.659,1.778-2.489,4.029-2.489,6.637c0,2.844,0.83,5.096,2.489,6.756c1.66,1.777,3.674,2.607,6.282,2.607
				c2.489,0,4.622-0.83,6.281-2.607c1.66-1.778,2.489-4.03,2.489-6.756c0-2.726-0.83-4.978-2.489-6.756
				C66.607,248.771,64.474,247.941,61.867,247.941z"/>
		</g>
		<g>
			<path fill="#FFFFFF" d="M82.133,228.741h8.059v44.563h-8.059V228.741z"/>
		</g>
		<g>
			<path fill="#FFFFFF" d="M99.437,227.911c1.422,0,2.607,0.474,3.674,1.541c1.066,1.067,1.541,2.252,1.541,3.674
				s-0.474,2.607-1.541,3.674c-0.948,1.067-2.252,1.541-3.556,1.541c-1.422,0-2.607-0.474-3.674-1.541
				c-1.066-1.066-1.541-2.251-1.541-3.792c0-1.422,0.474-2.607,1.541-3.674C96.83,228.385,98.015,227.911,99.437,227.911z
				 M95.407,241.185h8.06v32.119h-8.06V241.185z"/>
		</g>
		<g>
			<path fill="#FFFFFF" d="M141.037,247.704l-6.756,3.674c-1.304-1.304-2.489-2.252-3.792-2.726
				c-1.185-0.474-2.726-0.711-4.385-0.711c-2.963,0-5.452,0.948-7.348,2.726c-1.896,1.778-2.844,4.148-2.844,6.875
				c0,2.726,0.948,4.978,2.726,6.637c1.778,1.777,4.148,2.607,7.111,2.607c3.556,0,6.4-1.186,8.415-3.674l6.4,4.385
				c-3.437,4.504-8.296,6.756-14.578,6.756c-5.689,0-10.074-1.659-13.274-4.979c-3.2-3.318-4.859-7.229-4.859-11.732
				c0-3.082,0.83-5.926,2.37-8.652c1.541-2.607,3.674-4.622,6.519-6.163c2.844-1.541,5.926-2.252,9.363-2.252
				c3.2,0,6.044,0.593,8.652,1.896C137.363,243.556,139.378,245.333,141.037,247.704z"/>
		</g>
		<g>
			<path fill="#FFFFFF" d="M141.037,241.185h8.296l8.296,20.149l9.245-20.149h8.296l-20.148,43.852h-8.296l6.637-14.104
				L141.037,241.185z"/>
		</g>
	</g>
	<g>
		<g>
			<g>
				<path fill="#FFFFFF" d="M282.549,237.037l-7.705,7.348c-5.214-5.57-11.141-8.296-17.658-8.296
					c-5.571,0-10.193,1.896-13.985,5.689c-3.793,3.792-5.689,8.415-5.689,13.985c0,3.911,0.83,7.348,2.489,10.311
					s4.03,5.333,7.111,7.111c3.081,1.658,6.519,2.607,10.192,2.607c3.2,0,6.163-0.593,8.771-1.778
					c2.607-1.185,5.57-3.318,8.77-6.519l7.467,7.822c-4.266,4.148-8.296,7.111-12.088,8.652c-3.793,1.659-8.178,2.37-13.037,2.37
					c-9.008,0-16.356-2.845-22.163-8.533c-5.689-5.688-8.652-13.037-8.652-21.926c0-5.807,1.304-10.904,3.911-15.407
					c2.607-4.504,6.4-8.059,11.259-10.785c4.859-2.726,10.074-4.148,15.763-4.148c4.741,0,9.362,1.066,13.748,3.081
					C275.438,230.519,279.348,233.363,282.549,237.037z"/>
			</g>
		</g>
	</g>
	<g>
		<g>
			<g>
				<path fill="#FFFFFF" d="M300.444,240.355c3.082,0,5.926,0.711,8.533,2.252c2.727,1.541,4.741,3.556,6.281,6.163
					c1.541,2.607,2.252,5.452,2.252,8.415c0,3.081-0.711,5.926-2.252,8.533c-1.54,2.607-3.555,4.74-6.162,6.162
					c-2.607,1.541-5.452,2.252-8.652,2.252c-4.622,0-8.533-1.658-11.852-4.859c-3.319-3.318-4.859-7.229-4.859-11.97
					c0-4.978,1.896-9.245,5.57-12.563C292.504,241.778,296.178,240.355,300.444,240.355z M300.562,247.941
					c-2.488,0-4.621,0.83-6.281,2.607c-1.659,1.778-2.488,4.029-2.488,6.637c0,2.844,0.829,5.096,2.488,6.756
					c1.66,1.777,3.674,2.607,6.281,2.607c2.489,0,4.623-0.83,6.282-2.607c1.659-1.778,2.488-4.03,2.488-6.756
					c0-2.726-0.829-4.978-2.488-6.756C305.186,248.771,303.052,247.941,300.562,247.941z"/>
				<path fill="#FFFFFF" d="M322.726,241.185h8.06v3.674c1.422-1.541,2.963-2.607,4.622-3.437c1.659-0.711,3.556-1.067,5.57-1.067
					s3.793,0.474,5.452,1.422s2.963,2.37,3.911,4.267c1.304-1.896,2.845-3.318,4.74-4.267c1.896-0.948,3.911-1.422,6.045-1.422
					c2.252,0,4.267,0.474,6.044,1.541c1.778,1.066,2.964,2.489,3.793,4.148c0.711,1.659,1.186,4.504,1.186,8.415v18.844h-8.297
					v-16.355c0-3.674-0.474-6.163-1.304-7.348c-0.948-1.304-2.252-1.896-4.029-1.896c-1.422,0-2.607,0.355-3.674,1.185
					c-1.067,0.83-1.896,1.896-2.489,3.319c-0.474,1.422-0.829,3.674-0.829,6.636v14.46h-8.179v-15.526
					c0-2.844-0.236-4.978-0.592-6.281c-0.475-1.304-1.067-2.251-1.896-2.844c-0.83-0.593-1.896-0.948-3.082-0.948
					c-1.304,0-2.607,0.355-3.674,1.185c-1.066,0.83-1.896,1.896-2.488,3.319c-0.593,1.422-0.83,3.674-0.83,6.755v14.341h-8.06
					V241.185L322.726,241.185z"/>
				<path fill="#FFFFFF" d="M386.489,241.185v3.556c1.422-1.422,3.081-2.607,4.74-3.318c1.659-0.711,3.556-1.067,5.452-1.067
					c4.148,0,7.703,1.541,10.667,4.741c2.963,3.2,4.385,7.23,4.385,12.208c0,4.741-1.541,8.771-4.504,11.97
					c-3.081,3.201-6.637,4.859-10.785,4.859c-1.896,0-3.556-0.355-5.215-0.947c-1.54-0.711-3.2-1.778-4.74-3.2v15.171h-8.06v-43.853
					h8.06V241.185z M394.903,247.822c-2.488,0-4.622,0.83-6.281,2.607s-2.488,4.03-2.488,6.756c0,2.844,0.829,5.215,2.488,6.873
					c1.659,1.778,3.793,2.607,6.281,2.607c2.489,0,4.504-0.947,6.163-2.725c1.659-1.778,2.489-4.03,2.489-6.875
					c0-2.726-0.83-4.978-2.489-6.755C399.526,248.652,397.511,247.822,394.903,247.822z"/>
				<path fill="#FFFFFF" d="M440.889,241.185h8.06v32.119h-8.06v-3.437c-1.54,1.54-3.2,2.607-4.74,3.199
					c-1.541,0.711-3.318,0.948-5.097,0.948c-4.148,0-7.703-1.659-10.785-4.858c-3.081-3.201-4.504-7.23-4.504-11.971
					c0-4.978,1.423-9.008,4.386-12.208c2.963-3.2,6.519-4.74,10.666-4.74c1.896,0,3.793,0.355,5.452,1.066s3.2,1.778,4.741,3.318
					v-3.437H440.889z M432.474,247.822c-2.488,0-4.503,0.83-6.162,2.607s-2.489,4.03-2.489,6.756c0,2.726,0.83,5.096,2.489,6.873
					c1.659,1.778,3.792,2.727,6.162,2.727c2.489,0,4.623-0.83,6.282-2.607s2.488-4.029,2.488-6.874c0-2.844-0.829-5.096-2.488-6.755
					C437.097,248.652,434.963,247.822,432.474,247.822z"/>
				<path fill="#FFFFFF" d="M475.615,245.689l-4.979,4.978c-2.015-2.015-3.911-2.963-5.57-2.963c-0.948,0-1.659,0.237-2.133,0.593
					c-0.475,0.355-0.711,0.83-0.711,1.422c0,0.474,0.118,0.83,0.474,1.185s1.186,0.83,2.37,1.541l2.963,1.422
					c3.082,1.541,5.215,3.082,6.4,4.741c1.186,1.541,1.777,3.438,1.777,5.57c0,2.845-1.066,5.215-3.199,7.111
					c-2.134,1.896-4.859,2.844-8.415,2.844c-4.741,0-8.415-1.777-11.26-5.451l4.979-5.452c0.947,1.067,2.015,2.015,3.318,2.726
					s2.37,1.067,3.437,1.067s1.896-0.237,2.607-0.712c0.593-0.474,0.948-1.066,0.948-1.777c0-1.186-1.186-2.488-3.556-3.674
					l-2.726-1.304c-5.215-2.607-7.822-5.926-7.822-9.837c0-2.489,0.948-4.741,2.963-6.519c2.015-1.778,4.504-2.726,7.467-2.726
					c2.133,0,4.029,0.474,5.926,1.422C472.771,242.607,474.312,243.911,475.615,245.689z"/>
				<path fill="#FFFFFF" d="M500.978,245.689L496,250.667c-2.015-2.015-3.911-2.963-5.57-2.963c-0.948,0-1.659,0.237-2.134,0.593
					c-0.474,0.355-0.711,0.83-0.711,1.422c0,0.474,0.119,0.83,0.475,1.185s1.185,0.83,2.37,1.541l2.963,1.422
					c3.081,1.541,5.215,3.082,6.4,4.741c1.185,1.541,1.777,3.438,1.777,5.57c0,2.845-1.066,5.215-3.2,7.111
					c-2.133,1.896-4.859,2.844-8.415,2.844c-4.74,0-8.414-1.777-11.259-5.451l4.978-5.452c0.948,1.067,2.015,2.015,3.318,2.726
					s2.371,1.067,3.438,1.067s1.896-0.237,2.607-0.712c0.593-0.474,0.948-1.066,0.948-1.777c0-1.186-1.186-2.488-3.556-3.674
					l-2.726-1.304c-5.215-2.607-7.822-5.926-7.822-9.837c0-2.489,0.948-4.741,2.963-6.519c2.015-1.778,4.503-2.726,7.467-2.726
					c2.133,0,4.029,0.474,5.926,1.422C498.134,242.607,499.674,243.911,500.978,245.689z"/>
			</g>
		</g>
	</g>
</g>
</svg>
