<?xml version="1.0" encoding="utf-8"?>
<!-- Generator: Adobe Illustrator 19.2.1, SVG Export Plug-In . SVG Version: 6.00 Build 0)  -->
<svg version="1.1" xmlns="http://www.w3.org/2000/svg" xmlns:xlink="http://www.w3.org/1999/xlink" x="0px" y="0px"
	 viewBox="0 0 147.3 147.3" style="enable-background:new 0 0 147.3 147.3;" xml:space="preserve">
<style type="text/css">
	.st0{display:none;}
	.st1{display:inline;fill:#1F6652;}
	.st2{display:inline;fill:#777777;}
	.st3{opacity:0.5;}
	.st4{fill:#FFFFFF;}
	.st5{fill:#3C3C3B;}
</style>
<g id="Layer_2" class="st0">
	<rect x="-7.2" y="-6.8" class="st1" width="168.3" height="177.8"/>
</g>
<g id="Layer_3">
	<g class="st3">
		<g>
			<path class="st4" d="M46.2,52.4c1.4-2.6,3.2-4.2,6-5.4c-0.8-0.4-1.5-0.9-2.3-1.3c0.7,5.6,1.2,11.4-2,16.4
				c0.9,0.4,1.8,0.8,2.7,1.2c1.2-3.3,2.6-6.5,4.2-9.6c0.8-1.6-1.1-2.8-2.4-1.8c-0.9,0.7-1.7,1.4-2.6,2c0.8,0.2,1.7,0.4,2.5,0.7
				c-0.7-1.9-0.4-3.8,0.7-5.6c0.8-1.5-1.1-3-2.4-1.8c-1.5,1.5-2.7,2.2-4.6,3c0.7,0.6,1.5,1.1,2.2,1.7c0.7-3.8,2.2-7,4.9-9.9
				c1.2-1.3-0.3-3-1.8-2.4c-1.1,0.5-2.3,1-3.4,1.5c0.7,0.2,1.4,0.4,2.1,0.5c-0.8-1.3,3.5-6,4.2-7c1-1.3-0.8-2.6-2.1-2.1
				c-3.4,1.6-6,3.8-8.1,6.9c-0.8,1.2,0.9,3,2.1,2.1c1.6-1.2,3.2-2.5,4.9-3.7c-0.7-0.6-1.5-1.1-2.2-1.7c-0.9,5.5-2.8,10.4-5.9,15
				c-1,1.5,1.1,2.9,2.4,1.8c1.4-1.3,2.8-2.6,4.3-4c-0.8-0.5-1.7-1-2.5-1.5c-0.8,3.8-1.9,7.3-3.5,10.8c-0.5,1.2,0.7,3.1,2.1,2.1
				c2.5-1.9,5-3.8,7.5-5.8c-0.8-0.4-1.5-0.9-2.3-1.3c0.1,6,0.1,11.9-0.1,17.9c0,1.1,1.3,1.9,2.3,1.3c1.8-1.1,3.6-2.2,5.4-3.2
				c-0.8-0.4-1.5-0.9-2.3-1.3C56,71.4,55.6,75,55,78.5c-0.3,1.6,1.8,2.7,2.7,1.2c0.6-1,1.2-2,1.9-2.9c-0.9-0.3-1.9-0.5-2.8-0.8
				c-0.1,1.8-0.5,3.5-1.1,5.1c-0.6,1.9,2.2,2.6,2.9,0.8c0.5-1.3,1-2.7,1.4-4c-1-0.1-2-0.3-2.9-0.4C57,79,57,80.5,56.9,82
				c-0.1,1.2,1.8,2.1,2.6,1.1c0.9-1.6,1.4-1,1.6,1.8c-0.4,1.9,2.5,2.7,2.9,0.8c1.1-4.8-2.7-9.9-6.6-4.7c0.9,0.4,1.7,0.7,2.6,1.1
				c0.1-1.5,0.1-3,0.2-4.5c0.1-1.8-2.4-1.9-2.9-0.4c-0.5,1.3-1,2.7-1.4,4c1,0.3,1.9,0.5,2.9,0.8c0.6-2,1-3.9,1.2-5.9
				c0.2-1.6-2.1-1.9-2.8-0.8c-0.6,1-1.2,2-1.9,2.9c0.9,0.4,1.8,0.8,2.7,1.2c0.6-3.8,1.1-7.6,1.3-11.4c0.1-1.1-1.3-1.9-2.3-1.3
				c-1.8,1.1-3.6,2.2-5.4,3.2c0.8,0.4,1.5,0.9,2.3,1.3c0.2-6,0.3-11.9,0.1-17.9c0-1-1.3-2-2.3-1.3c-2.5,1.9-5,3.8-7.5,5.8
				c0.7,0.7,1.4,1.4,2.1,2.1c1.7-3.7,3-7.5,3.8-11.5c0.3-1.5-1.4-2.5-2.5-1.5c-1.4,1.3-2.8,2.6-4.3,4c0.8,0.6,1.6,1.2,2.4,1.8
				c3.3-4.8,5.3-10,6.2-15.7c0.2-1.1-1-2.6-2.2-1.7c-1.6,1.2-3.2,2.5-4.9,3.7c0.7,0.7,1.4,1.4,2.1,2.1c1.8-2.7,4.1-4.5,7-5.8
				c-0.7-0.7-1.4-1.4-2.1-2.1c-1.9,2.6-6.5,6.6-4.2,10.1c0.5,0.7,1.3,0.9,2.1,0.5c1.1-0.5,2.3-1,3.4-1.5c-0.6-0.8-1.2-1.6-1.8-2.4
				c-3,3.3-4.8,6.9-5.6,11.2c-0.3,1.4,1,2.2,2.2,1.7c2-0.9,3.6-2,5.2-3.5c-0.8-0.6-1.6-1.2-2.4-1.8c-1.4,2.6-1.7,5-1,7.9
				c0.3,1.2,1.7,1.3,2.5,0.7c0.9-0.7,1.7-1.4,2.6-2c-0.8-0.6-1.6-1.2-2.4-1.8c-1.8,3.3-3.3,6.8-4.5,10.3c-0.6,1.7,1.8,2.5,2.7,1.2
				c3.6-5.4,3.2-11.7,2.5-17.9c-0.1-1.2-1.1-1.8-2.3-1.3c-3.2,1.4-5.4,3.4-7,6.4C42.7,52.6,45.3,54.1,46.2,52.4L46.2,52.4z"/>
			<path class="st4" d="M48.5,44.6c-0.9-0.2-1.8-0.3-2.8-0.5c-0.8-0.1-1.6,0.2-1.8,1c-0.2,0.7,0.2,1.7,1,1.8
				c0.9,0.2,1.8,0.3,2.8,0.5c0.8,0.1,1.6-0.2,1.8-1C49.7,45.8,49.3,44.8,48.5,44.6L48.5,44.6z"/>
			<path class="st4" d="M44.1,63.8c-0.4,1.5-0.5,2.8-0.6,4.3c0,1.5,2.1,2.1,2.8,0.8c1.2-2.2,2.4-4.3,3.8-6.3
				c-0.8,0.1-1.6,0.2-2.4,0.3c2.4,2.5,1.9,8.5,2.1,11.7c0.1,1.7,2.5,2.1,2.9,0.4c1-3.3,2.2-6.3,3.8-9.4c0.9-1.7-1.6-3.2-2.6-1.5
				c-1.4,2.2-2.4,4.5-3.3,7c1,0.3,1.9,0.5,2.9,0.8c1.5-4.7,3.4-9.1,5.8-13.4c-0.9-0.4-1.8-0.8-2.7-1.2c-1.2,3-2.8,5.6-5,8
				c0.8,0.5,1.7,1,2.5,1.5c0.9-5.4,2.3-10.7,4-15.8c0.6-1.7-1.8-2.5-2.7-1.2c-2.2,3.1-4.6,5.9-7.3,8.6c0.8,0.5,1.7,1,2.5,1.5
				c1.7-4.2,2.9-8.4,3.6-12.8c0.2-1.4-1.4-2.7-2.5-1.5c-2.3,2.5-3.9,5.1-5.1,8.2c1,0.3,1.9,0.5,2.9,0.8c0.8-4.5,1.6-9,2.3-13.5
				c0.3-1.9-2.2-2.6-2.9-0.8c-1.6,3.8-3.6,7.2-6.2,10.4c0.8,0.5,1.7,1,2.5,1.5c1.9-4.8,3-9.6,3.6-14.7c0.2-1.8-2.4-1.9-2.9-0.4
				c-0.8,2.3-3.2,6.2-0.4,7.9c1.7,1,3.2-1.6,1.5-2.6c0.2,0.1,1.7-4.4,1.8-4.5c-1-0.1-2-0.3-2.9-0.4c-0.6,4.9-1.7,9.4-3.5,13.9
				c-0.5,1.4,1.6,2.6,2.5,1.5c2.9-3.6,5.2-7.4,7-11.7c-1-0.3-1.9-0.5-2.9-0.8c-0.8,4.5-1.6,9-2.3,13.5c-0.3,1.9,2.2,2.6,2.9,0.8
				c1-2.7,2.4-4.8,4.3-6.9c-0.8-0.5-1.7-1-2.5-1.5c-0.7,4.4-1.9,8.7-3.6,12.8c-0.6,1.4,1.5,2.5,2.5,1.5c2.9-2.9,5.4-5.9,7.8-9.2
				c-0.9-0.4-1.8-0.8-2.7-1.2c-1.7,5.2-3.1,10.5-4,15.8c-0.2,1.4,1.4,2.7,2.5,1.5c2.5-2.8,4.4-5.8,5.8-9.3c0.6-1.6-1.9-2.6-2.7-1.2
				c-2.5,4.5-4.5,9.2-6.1,14.1c-0.6,1.8,2.3,2.6,2.9,0.8c0.7-2.3,1.7-4.3,2.9-6.3c-0.9-0.5-1.7-1-2.6-1.5c-1.7,3.3-3,6.5-4.1,10.1
				c1,0.1,2,0.3,2.9,0.4c-0.2-4.3,0.3-10.5-3-13.9c-0.7-0.7-1.8-0.5-2.4,0.3c-1.4,2-2.6,4.1-3.8,6.3c0.9,0.3,1.9,0.5,2.8,0.8
				c0-1.2,0.1-2.4,0.5-3.6C47.5,62.7,44.6,61.9,44.1,63.8L44.1,63.8z"/>
			<path class="st4" d="M45,57.3c-0.8,2-2.9,5.1-1.1,7.1c0.7,0.7,1.9,0.5,2.4-0.3c1.9-3.3,3.8-6.7,5.6-10.1c0.9-1.7-1.7-3.2-2.6-1.5
				c-1.8,3.4-3.7,6.8-5.6,10.1c0.8-0.1,1.6-0.2,2.4-0.3c0,0,1.7-3.9,1.8-4.2C48.6,56.3,45.7,55.5,45,57.3L45,57.3z"/>
			<path class="st4" d="M49.3,53.9c-0.6,4.4-1.4,8.8-2.5,13.2c-0.5,1.9,2.3,2.6,2.9,0.8c1-3,2.3-5.6,4.2-8.1c-0.8-0.5-1.7-1-2.5-1.5
				c-1.5,4.4-2.5,8.8-3.2,13.4c-0.2,1.6,1.9,2.8,2.7,1.2c2.3-4.2,4.9-8.1,8-11.8c-0.8-0.5-1.7-1-2.5-1.5c-1.9,5.8-3.1,11.6-3.8,17.7
				c-0.2,1.5,2.1,2,2.8,0.8c1.8-3.3,3.8-6.5,6-9.6c-0.9-0.4-1.8-0.8-2.7-1.2c-1.4,5.1-2.1,10.2-2.1,15.5c0,1.5,2,2,2.8,0.8
				c2-3.5,4.2-6.8,6.6-10c-0.9-0.5-1.7-1-2.6-1.5c-2.7,5.2-4.1,10.6-4.2,16.5c0,1.5,2,2,2.8,0.8c2.3-3.5,4.2-7,5.9-10.8
				c-0.9-0.4-1.8-0.8-2.7-1.2c-1.5,5.4-2.6,10.9-3.4,16.4c-0.3,1.9,2.2,2.6,2.9,0.8c1.7-4.5,3.5-8.8,5.7-13.1
				c-0.9-0.4-1.8-0.8-2.7-1.2c-1.2,5.2-2.2,10.4-3,15.6c-0.2,1.5,2,2.8,2.7,1.2c2.1-4.4,4.1-8.8,6.2-13.2c-0.9-0.4-1.8-0.8-2.7-1.2
				c-1.3,5-2.4,10.1-3.3,15.2c-0.3,1.5,1.9,2.8,2.7,1.2c1.6-3.2,3.2-6.4,4.8-9.6c-0.9-0.4-1.8-0.8-2.7-1.2
				c-1.1,4.4-1.9,8.9-2.4,13.4c-0.2,1.8,2.4,1.9,2.9,0.4c1.8-4.7,3.6-9.5,5.5-14.2c-1-0.1-2-0.3-2.9-0.4c-0.5,4.7-0.9,9.4-1.4,14.2
				c-0.2,1.7,2.5,2,2.9,0.4c1.2-4.4,2.7-8.6,4.6-12.8c-0.9-0.4-1.8-0.8-2.7-1.2c-0.8,5.1-1.6,10.2-2.4,15.3
				c-0.3,1.9,2.3,2.7,2.9,0.8c1.4-4.4,3-8.8,4.8-13c-0.9-0.4-1.8-0.8-2.7-1.2c-0.9,4.6-1.9,9.3-2.8,13.9c1,0.1,2,0.3,2.9,0.4
				c0.4-3.5,1.3-6.8,2.8-10c-0.9-0.4-1.8-0.8-2.7-1.2c-0.5,3.8-1.1,7.6-1.6,11.3c-0.3,1.9,2.6,2.7,2.9,0.8c0.5-3.8,1.1-7.6,1.6-11.3
				c0.2-1.5-2-2.9-2.7-1.2c-1.7,3.7-2.7,7.5-3.2,11.5c-0.2,1.7,2.6,2,2.9,0.4c0.9-4.6,1.9-9.3,2.8-13.9c0.3-1.5-2-2.8-2.7-1.2
				c-1.9,4.5-3.6,9.1-5.1,13.8c1,0.3,1.9,0.5,2.9,0.8c0.8-5.1,1.6-10.2,2.4-15.3c0.2-1.5-2-2.8-2.7-1.2c-1.9,4.4-3.6,8.9-4.9,13.5
				c1,0.1,2,0.3,2.9,0.4c0.5-4.7,0.9-9.4,1.4-14.2c0.2-1.8-2.4-1.9-2.9-0.4c-1.8,4.7-3.6,9.5-5.5,14.2c1,0.1,2,0.3,2.9,0.4
				c0.5-4.3,1.2-8.5,2.3-12.6c0.4-1.6-2-2.7-2.7-1.2c-1.6,3.2-3.2,6.4-4.8,9.6c0.9,0.4,1.8,0.8,2.7,1.2c0.9-5.1,2-10.2,3.3-15.2
				c0.4-1.6-2-2.7-2.7-1.2c-2.1,4.4-4.1,8.8-6.2,13.2c0.9,0.4,1.8,0.8,2.7,1.2c0.8-5.2,1.8-10.4,3-15.6c0.4-1.6-1.9-2.7-2.7-1.2
				c-2.3,4.5-4.3,9.1-6,13.8c1,0.3,1.9,0.5,2.9,0.8c0.8-5.5,1.9-11,3.4-16.4c0.4-1.6-2-2.7-2.7-1.2c-1.7,3.8-3.6,7.4-5.9,10.8
				c0.9,0.3,1.9,0.5,2.8,0.8c0.1-5.4,1.3-10.2,3.8-15c0.9-1.7-1.5-3-2.6-1.5c-2.4,3.2-4.6,6.6-6.6,10c0.9,0.3,1.9,0.5,2.8,0.8
				c0-5,0.7-9.9,2-14.7c0.5-1.7-1.8-2.5-2.7-1.2c-2.2,3.1-4.2,6.2-6,9.6c0.9,0.3,1.9,0.5,2.8,0.8c0.7-5.8,1.9-11.4,3.7-16.9
				c0.5-1.4-1.5-2.6-2.5-1.5c-3.2,3.9-6,8-8.4,12.4c0.9,0.4,1.8,0.8,2.7,1.2c0.7-4.6,1.7-9,3.2-13.4c0.5-1.4-1.6-2.7-2.5-1.5
				c-2.3,2.9-3.9,5.9-5,9.4c1,0.3,1.9,0.5,2.9,0.8c1.1-4.6,2-9.3,2.6-14C52.6,52,49.6,52,49.3,53.9L49.3,53.9z"/>
			<path class="st4" d="M83.6,94.5c-1.2,4.5-1.9,9.1-2,13.8c-0.1,2,2.8,1.9,3,0c0.4-4.6,1.5-8.8,3.3-13c-0.9-0.4-1.8-0.8-2.7-1.2
				c-0.8,5.2-1.6,10.5-2.4,15.7c-0.2,1.5,2,2.9,2.7,1.2c2.1-4.7,4-9.5,5.9-14.4c-1-0.3-1.9-0.5-2.9-0.8c-0.9,5.8-1.9,11.5-2.8,17.3
				c-0.3,1.9,2.3,2.7,2.9,0.8c1.5-5.1,3.1-10,5.9-14.5c-0.9-0.4-1.8-0.8-2.7-1.2c-1.1,5.4-2.2,10.8-3.3,16.2
				c-0.4,1.9,2.3,2.6,2.9,0.8c1.4-4,2.8-8.1,4.2-12.1c-1-0.3-1.9-0.5-2.9-0.8c-1.6,5.1-2.6,10.2-3,15.6c-0.2,1.8,2.4,1.9,2.9,0.4
				c2.2-5.8,4.2-11.6,6-17.6c-1-0.3-1.9-0.5-2.9-0.8c-0.8,5.6-1.6,11.2-2.4,16.8c-0.3,1.9,2.3,2.7,2.9,0.8c1.2-4.2,2.5-8.2,5.1-11.9
				c-0.9-0.3-1.9-0.5-2.8-0.8c-0.4,4.6-0.8,9.1-1.1,13.7c-0.1,1.7,2.5,2,2.9,0.4c1-3.7,2.2-7.3,3.6-10.8c-1-0.3-1.9-0.5-2.9-0.8
				c-1,4.3-1.3,8.4-1,12.8c0.1,1.7,2.3,2,2.9,0.4c0.8-2,1.6-4,2.3-6c-1-0.1-2-0.3-2.9-0.4c0,1.2,0.3,3.3-0.2,4.4
				c0.7-0.3,1.5-0.6,2.2-0.9c-0.1,0-0.1-0.1-0.2-0.1c0.2,0.7,0.4,1.4,0.5,2.1c0,0,0.1-0.1,0.1-0.1c1.2-1.5-1.4-3-2.6-1.5
				c0,0-0.1,0.1-0.1,0.1c-0.5,0.6-0.1,1.7,0.5,2.1c0.1,0,0.1,0.1,0.2,0.1c0.9,0.5,1.9,0,2.2-0.9c0.6-1.5,0.2-3.7,0.3-5.2
				c0-1.8-2.4-1.9-2.9-0.4c-0.8,2-1.6,4-2.3,6c1,0.1,2,0.3,2.9,0.4c-0.3-4.1-0.1-8,0.9-12c0.4-1.9-2.2-2.6-2.9-0.8
				c-1.4,3.6-2.6,7.1-3.6,10.8c1,0.1,2,0.3,2.9,0.4c0.4-4.6,0.8-9.1,1.1-13.7c0.1-1.6-2-1.9-2.8-0.8c-2.7,3.9-4.1,8.1-5.4,12.6
				c1,0.3,1.9,0.5,2.9,0.8c0.8-5.6,1.6-11.2,2.4-16.8c0.3-1.9-2.3-2.7-2.9-0.8c-1.7,5.9-3.7,11.8-6,17.6c1,0.1,2,0.3,2.9,0.4
				c0.5-5.1,1.4-9.9,2.9-14.8c0.6-1.9-2.3-2.6-2.9-0.8c-1.4,4-2.8,8.1-4.2,12.1c1,0.3,1.9,0.5,2.9,0.8c1.1-5.4,2.2-10.8,3.3-16.2
				c0.3-1.6-1.8-2.7-2.7-1.2c-2.9,4.8-4.6,9.9-6.2,15.3c1,0.3,1.9,0.5,2.9,0.8c0.9-5.8,1.9-11.5,2.8-17.3c0.3-1.9-2.2-2.6-2.9-0.8
				c-1.8,4.6-3.6,9.1-5.6,13.6c0.9,0.4,1.8,0.8,2.7,1.2c0.8-5.2,1.6-10.5,2.4-15.7c0.2-1.5-2-2.9-2.7-1.2c-2.1,4.7-3.3,9.4-3.8,14.5
				c1,0,2,0,3,0c0.1-4.4,0.8-8.7,1.9-13C86.9,93.4,84,92.6,83.6,94.5L83.6,94.5z"/>
			<path class="st4" d="M87.2,120.5c-0.4,1.1,0.1,2.4,1.1,3c0.7,0.4,1.7,0.1,2.1-0.5c0.4-0.7,0.2-1.6-0.5-2.1
				c0.1,0.1,0.1,0.1,0.2,0.2c0,0.2,0.1,0.2,0,0.1c0-0.1,0-0.1,0,0.1c0,0.2,0,0.2,0,0c0.3-0.7-0.3-1.7-1-1.8
				C88.2,119.3,87.5,119.7,87.2,120.5L87.2,120.5z"/>
			<path class="st4" d="M80.3,115c-3.4-1.3-5,4-1.5,4.8c1.5,0.3,2.7-0.8,3-2.2c0.4-1.9,1.1-3.7,1.6-5.7c-1-0.1-2-0.3-2.9-0.4
				c0,2,0,4,0,6c0,1.4,2.1,2.1,2.8,0.8c0.8-1.6,1.4-3.1,1.8-4.8c-1-0.1-2-0.3-2.9-0.4c-0.2,1.9-0.1,3.7,0.5,5.5
				c0.4,1.4,2.5,1.5,2.9,0c0.5-2.1,1-4.3,1.5-6.4c-1-0.1-2-0.3-2.9-0.4c-0.1,3.1,0,6.1,0.3,9.2c0.2,1.6,2.5,2.1,2.9,0.4
				c1-3.8,1.8-7.6,2.3-11.5c0.3-1.9-2.6-2.7-2.9-0.8c-0.6,3.9-1.3,7.7-2.3,11.5c1,0.1,2,0.3,2.9,0.4c-0.3-3.1-0.4-6.1-0.3-9.2
				c0.1-1.7-2.6-2.1-2.9-0.4c-0.5,2.1-1,4.3-1.5,6.4c1,0,1.9,0,2.9,0c-0.5-1.6-0.6-3.1-0.4-4.7c0.2-1.7-2.6-2-2.9-0.4
				c-0.3,1.4-0.8,2.8-1.5,4.1c0.9,0.3,1.9,0.5,2.8,0.8c0-2,0-4,0-6c0-1.7-2.5-2.1-2.9-0.4c-0.3,1.3-0.7,2.5-1.1,3.7
				c-0.4,0.9-1.4,2.5,0.2,3.1C81.3,118.6,82.1,115.7,80.3,115L80.3,115z"/>
			<path class="st4" d="M95.8,101.6c0,0.1,0,0.2,0,0.3c-0.1,1.6,2,1.8,2.8,0.8c0.6-0.8,1.1-1.5,1.7-2.3c-0.9-0.3-1.9-0.5-2.8-0.8
				c0.1,1.5,0.2,3.1,0.4,4.6c0.2,1.4,2.1,1.3,2.7,0.4c1.2-1.9,2.2-4,2.8-6.3c-1-0.3-1.9-0.5-2.9-0.8c-0.6,2.5-0.9,5-0.7,7.6
				c0.1,1.7,2.4,2,2.9,0.4c0.6-1.8,1.2-3.7,1.9-5.5c0.6-1.8-2.3-2.6-2.9-0.8c-0.6,1.8-1.2,3.7-1.9,5.5c1,0.1,2,0.3,2.9,0.4
				c-0.1-2.3,0.1-4.5,0.6-6.8c0.5-1.9-2.4-2.7-2.9-0.8c-0.6,2-1.4,3.8-2.5,5.5c0.9,0.1,1.8,0.2,2.7,0.4c-0.2-1.3-0.3-2.5-0.3-3.8
				c-0.1-1.6-1.9-1.9-2.8-0.8c-0.6,0.8-1.1,1.5-1.7,2.3c0.9,0.3,1.9,0.5,2.8,0.8c0.1-0.7-0.1-1.2-0.4-1.8
				C97.6,98.4,95,99.9,95.8,101.6L95.8,101.6z"/>
		</g>
	</g>
</g>
<g id="Layer_1">
	<g>
		<path class="st5" d="M60.2,67.8c1.7,2.8,3.6,5.5,5.7,8.1C73.3,86.4,84.2,94.7,97.3,99c1.1,0.4,1.9-1,1.4-1.9
			c-0.4-0.7-0.8-1.2-1.3-1.7c-0.1-0.2-0.2-0.3-0.4-0.4c-1.4-1.3-3.1-2.3-4.9-3.4c-3.4-2.1-6.5-4.4-9.4-7.1
			c-5.6-5.1-10.4-11.1-14-17.8c-3.6-6.6-6.2-13.8-7.4-21.2c-0.7-4.1-1.2-8.7-0.8-13.2c0.8-3.8,2.1-7.5,3.9-11
			c0.6-1.2-1.2-2.7-2.1-1.5c-0.1,0.1-0.1,0.2-0.2,0.3c0,0,0,0,0,0c0,0,0,0,0,0c-2.8,4-4.2,8.8-4.5,13.9c-0.4,2.3-0.6,4.6-0.6,6.9
			c-0.1-4.8,0.5-9.7,1.7-14.6c0.3-1.1-1.3-2.2-2.1-1.2C47.2,37.3,53.1,55.8,60.2,67.8z M61.4,62.1C64.8,70.1,69.9,77,76,82.9
			c-2.3-2-4.5-4.1-6.5-6.4c-4.7-6.1-8.3-13.1-10.3-20.6C59.8,58.1,60.5,60.1,61.4,62.1z M55.2,49.3c-1.1-4.9-1.5-10-0.4-14.6
			C54.3,39.7,54.4,44.6,55.2,49.3z"/>
		<path class="st5" d="M42.6,73.5c0.5,1.2,1.1,2.4,1.7,3.5c0.1,0.2,0.2,0.4,0.3,0.6c1.4,3,3.1,5.8,4.9,8.5
			c6.3,10.8,15.1,20.6,26.8,24.6c1.4,0.9,2.9,1.8,4.4,2.7c1,0.6,1.9-0.3,2-1.2c1.2-0.2,1.4-2,0.1-2.5c-3.5-1.3-6.8-3-10-4.9
			c-0.6-0.5-1.3-0.9-1.9-1.4c-2-1.6-3.8-3.3-5.6-5.2c6.6,5.1,14.4,8.9,22.6,10.8c0.8,0.2,1.1-1,0.3-1.3c-15.4-4.5-28.8-14.8-36.5-29
			c-3.2-6.7-5.4-13.9-6.5-21.3c-1-10.4,0.7-21.1,5-30.7c0.6-1.3-1-2.6-2.1-1.5c-1,1-1.9,2.1-2.7,3.1c-0.4-0.1-0.9,0-1.3,0.3
			c-1.2,1.2-2.1,2.5-2.9,3.8c0.2-1,0.5-2,0.9-2.8c0,0,0.1,0,0.1,0c0.1,0,0.2,0,0.3,0c0.6,0,1.2-0.4,1.3-1.1c0.2-1,0.1-1.4-0.6-2.2
			c-0.5-0.5-1.1-0.4-1.7-0.2c-2.8,1.4-3.3,6.5-3.8,9.2c-0.9,4.2-1.2,8.5-1.1,12.8C36.9,57.1,39,65.6,42.6,73.5z M47.4,75.6
			c0.7,1.7,1.5,3.4,2.3,5.1c-0.2-0.4-0.5-0.7-0.7-1.1c-5.6-11.2-9.7-25-7.1-37.2c-0.4,6.2,0,12.3,1.1,18.3
			C43.8,65.8,45.2,70.8,47.4,75.6z"/>
		<path class="st5" d="M63.7,120.8c-0.1,0.6,0.2,1.3,1,1.4c11.7,1.8,23.5,3.5,35.2,5.3c0.9,0.1,1.5-0.5,1.6-1.2
			c2.5,0.5,5.1,1,7.6,1.6c0.8,0.2,1.7-0.4,1.6-1.3c-0.1-0.9-0.2-1.9-0.3-2.8c0.8,0.3,1.7-0.1,1.5-1.1c0-0.1,0-0.2-0.1-0.3l0,0
			c0,0,0,0,0,0c-1.2-7.5-2.4-15.1-3.6-22.6c-0.7-7.5-1.3-15-2-22.5c-0.1-1-1.1-1.4-1.9-1.1c-0.5-1-2.5-0.5-2.4,0.8
			c0.5,5.6,1.1,11.1,1.7,16.7c-1.1-6.3-2.1-12.7-3.2-19c-0.2-1.5-2.8-1.1-2.6,0.4c2,14.8,4,29.7,7.5,44.2c0.1,0.4,0.1,0.9,0.2,1.3
			c0,0,0,0.1,0,0.1c-6.5-0.5-13-1.1-19.6-1.7c-7.3-0.9-14.6-1.5-22-1.9c-1.3-0.1-1.6,1.5-0.8,2.3C63.2,119.9,63.3,120.5,63.7,120.8z
			 M103.9,123.5c0.9,0,1.7,0.1,2.6,0.1c0.1,0.4,0.2,0.8,0.3,1.2c0,0,0,0,0,0c-1.2-0.2-2.4-0.5-3.5-0.7
			C103.6,124,103.8,123.8,103.9,123.5z"/>
	</g>
</g>
</svg>
