<?xml version="1.0" encoding="utf-8"?>
<!-- Generator: Adobe Illustrator 19.2.1, SVG Export Plug-In . SVG Version: 6.00 Build 0)  -->
<svg version="1.1" xmlns="http://www.w3.org/2000/svg" xmlns:xlink="http://www.w3.org/1999/xlink" x="0px" y="0px"
	 viewBox="0 0 147.3 147.3" style="enable-background:new 0 0 147.3 147.3;" xml:space="preserve">
<style type="text/css">
	.st0{display:none;}
	.st1{display:inline;fill:#1F6652;}
	.st2{display:inline;fill:#777777;}
	.st3{opacity:0.5;}
	.st4{fill:#FFFFFF;}
</style>
<g id="Layer_2" class="st0">
	<rect x="-5.3" y="-8.2" class="st2" width="168.3" height="177.8"/>
</g>
<g id="Layer_3">
	<g class="st3">
		<g>
			<path class="st4" d="M88.1,84.8c0.2-2.8,0.8-3.4,1.6-1.8c0.8,1,2.6,0.2,2.6-1.1c-0.1-1.5-0.1-3-0.2-4.5c-1,0.1-2,0.3-2.9,0.4
				c0.5,1.3,1,2.7,1.4,4c0.6,1.8,3.5,1.1,2.9-0.8c-0.6-1.7-1-3.4-1.1-5.1c-0.9,0.3-1.9,0.5-2.8,0.8c0.6,1,1.2,2,1.9,2.9
				c0.9,1.5,3,0.5,2.7-1.2c-0.6-3.5-1-7.1-1.2-10.6c-0.8,0.4-1.5,0.9-2.3,1.3c1.8,1.1,3.6,2.2,5.4,3.2c0.9,0.6,2.3-0.2,2.3-1.3
				c-0.2-6-0.3-11.9-0.1-17.9c-0.8,0.4-1.5,0.9-2.3,1.3c2.5,1.9,5,3.8,7.5,5.8c1.3,1,2.6-0.9,2.1-2.1c-1.6-3.5-2.7-7-3.5-10.8
				c-0.8,0.5-1.7,1-2.5,1.5c1.4,1.3,2.8,2.6,4.3,4c1.2,1.1,3.3-0.3,2.4-1.8c-3.1-4.6-5-9.5-5.9-15c-0.7,0.6-1.5,1.1-2.2,1.7
				c1.6,1.2,3.2,2.5,4.9,3.7c1.2,0.9,2.9-0.9,2.1-2.1c-2.1-3.1-4.7-5.3-8.1-6.9c-1.2-0.6-3,0.7-2.1,2.1c0.7,0.9,5.1,5.7,4.2,7
				c0.7-0.2,1.4-0.4,2.1-0.5c-1.1-0.5-2.3-1-3.4-1.5c-1.5-0.7-3,1-1.8,2.4c2.6,2.9,4.1,6.1,4.9,9.9c0.7-0.6,1.5-1.1,2.2-1.7
				c-1.9-0.8-3-1.5-4.6-3c-1.2-1.2-3.2,0.3-2.4,1.8c1.1,1.8,1.4,3.6,0.7,5.6c0.8-0.2,1.7-0.4,2.5-0.7c-0.9-0.7-1.7-1.4-2.6-2
				c-1.3-1-3.2,0.2-2.4,1.8c1.6,3.1,3.1,6.3,4.2,9.6c0.9-0.4,1.8-0.8,2.7-1.2c-3.3-5-2.7-10.7-2-16.4c-0.8,0.4-1.5,0.9-2.3,1.3
				c2.7,1.2,4.5,2.7,6,5.4c0.9,1.7,3.5,0.2,2.6-1.5c-1.6-3-3.8-5.1-7-6.4c-1.1-0.5-2.1,0.1-2.3,1.3c-0.7,6.2-1.1,12.4,2.5,17.9
				c0.9,1.3,3.3,0.5,2.7-1.2c-1.3-3.6-2.8-7-4.5-10.3c-0.8,0.6-1.6,1.2-2.4,1.8c0.9,0.7,1.7,1.4,2.6,2c0.8,0.7,2.2,0.5,2.5-0.7
				c0.7-2.9,0.4-5.3-1-7.9c-0.8,0.6-1.6,1.2-2.4,1.8c1.6,1.5,3.2,2.6,5.2,3.5c1.2,0.5,2.5-0.3,2.2-1.7c-0.8-4.3-2.7-8-5.6-11.2
				c-0.6,0.8-1.2,1.6-1.8,2.4c1.1,0.5,2.3,1,3.4,1.5c0.8,0.3,1.6,0.2,2.1-0.5c2.2-3.5-2.4-7.5-4.2-10.1c-0.7,0.7-1.4,1.4-2.1,2.1
				c3,1.4,5.2,3.1,7,5.8c0.7-0.7,1.4-1.4,2.1-2.1c-1.6-1.2-3.2-2.5-4.9-3.7c-1.2-0.9-2.4,0.6-2.2,1.7c0.9,5.8,2.9,10.9,6.2,15.7
				c0.8-0.6,1.6-1.2,2.4-1.8c-1.4-1.3-2.8-2.6-4.3-4c-1.1-1-2.8,0-2.5,1.5c0.8,4,2.1,7.8,3.8,11.5c0.7-0.7,1.4-1.4,2.1-2.1
				c-2.5-1.9-5-3.8-7.5-5.8c-1-0.7-2.2,0.3-2.3,1.3c-0.1,6-0.1,11.9,0.1,17.9c0.8-0.4,1.5-0.9,2.3-1.3c-1.8-1.1-3.6-2.2-5.4-3.2
				c-0.9-0.6-2.3,0.1-2.3,1.3c0.2,3.8,0.7,7.6,1.3,11.4c0.9-0.4,1.8-0.8,2.7-1.2c-0.6-1-1.2-2-1.9-2.9c-0.7-1.2-3-0.8-2.8,0.8
				c0.2,2.1,0.6,3.9,1.2,5.9c1-0.3,1.9-0.5,2.9-0.8c-0.5-1.3-1-2.7-1.4-4c-0.5-1.5-3-1.4-2.9,0.4c0.1,1.5,0.1,3,0.2,4.5
				c0.9-0.4,1.7-0.7,2.6-1.1c-4-5.1-7.8-0.1-6.6,4.7C85.6,87.5,88.5,86.7,88.1,84.8L88.1,84.8z"/>
			<path class="st4" d="M103.4,44.2c-0.9,0.2-1.8,0.3-2.8,0.5c-0.8,0.1-1.2,1.1-1,1.8c0.2,0.8,1,1.2,1.8,1c0.9-0.2,1.8-0.3,2.8-0.5
				c0.8-0.1,1.2-1.1,1-1.8C105,44.4,104.2,44,103.4,44.2L103.4,44.2z"/>
			<path class="st4" d="M103.6,45c2.8-1.7,0.4-5.6-0.4-7.9c-0.5-1.5-3.2-1.4-2.9,0.4c0.6,5.1,1.8,9.9,3.6,14.7
				c0.8-0.5,1.7-1,2.5-1.5c-2.6-3.2-4.6-6.6-6.2-10.4c-0.7-1.8-3.2-1.1-2.9,0.8c0.8,4.5,1.6,9,2.3,13.5c1-0.3,1.9-0.5,2.9-0.8
				c-1.2-3.1-2.8-5.8-5.1-8.2c-1.1-1.2-2.7,0.1-2.5,1.5c0.7,4.4,1.9,8.7,3.6,12.8c0.8-0.5,1.7-1,2.5-1.5c-2.7-2.7-5.1-5.5-7.3-8.6
				c-0.9-1.3-3.3-0.6-2.7,1.2c1.7,5.2,3.1,10.5,4,15.8c0.8-0.5,1.7-1,2.5-1.5c-2.2-2.4-3.8-5-5-8c-0.9,0.4-1.8,0.8-2.7,1.2
				c2.4,4.3,4.3,8.7,5.8,13.4c1-0.3,1.9-0.5,2.9-0.8c-0.8-2.5-1.8-4.7-3.3-7c-1-1.6-3.5-0.2-2.6,1.5c1.6,3,2.8,6.1,3.8,9.4
				c0.5,1.7,2.9,1.3,2.9-0.4c0.2-3.3-0.3-9.3,2.1-11.7c-0.8-0.1-1.6-0.2-2.4-0.3c1.4,2,2.6,4.1,3.8,6.3c0.7,1.3,2.8,0.7,2.8-0.8
				c0-1.5-0.2-2.9-0.6-4.3c-0.5-1.9-3.4-1.1-2.9,0.8c0.4,1.2,0.5,2.3,0.5,3.6c0.9-0.3,1.9-0.5,2.8-0.8c-1.2-2.2-2.4-4.3-3.8-6.3
				c-0.5-0.8-1.6-1-2.4-0.3c-3.2,3.3-2.7,9.6-3,13.9c1-0.1,2-0.3,2.9-0.4c-1-3.5-2.4-6.8-4.1-10.1c-0.9,0.5-1.7,1-2.6,1.5
				c1.3,2,2.2,4,2.9,6.3c0.6,1.8,3.5,1.1,2.9-0.8c-1.6-4.9-3.6-9.6-6.1-14.1c-0.8-1.4-3.4-0.5-2.7,1.2c1.4,3.5,3.2,6.5,5.8,9.3
				c1.1,1.2,2.7-0.1,2.5-1.5c-0.9-5.4-2.3-10.7-4-15.8c-0.9,0.4-1.8,0.8-2.7,1.2c2.4,3.3,4.9,6.4,7.8,9.2c1,1,3.1,0,2.5-1.5
				c-1.7-4.2-2.9-8.4-3.6-12.8c-0.8,0.5-1.7,1-2.5,1.5c1.9,2.1,3.3,4.2,4.3,6.9c0.7,1.8,3.2,1.1,2.9-0.8c-0.8-4.5-1.6-9-2.3-13.5
				c-1,0.3-1.9,0.5-2.9,0.8c1.8,4.3,4,8.1,7,11.7c0.9,1.1,3-0.1,2.5-1.5c-1.8-4.5-3-9.1-3.5-13.9c-1,0.1-2,0.3-2.9,0.4
				c0,0.1,1.5,4.7,1.8,4.5C100.4,43.4,101.9,46,103.6,45L103.6,45z"/>
			<path class="st4" d="M97.3,53.9c1.8,3.4,3.7,6.8,5.6,10.1c0.5,0.8,1.7,1,2.4,0.3c1.9-2-0.2-5.1-1.1-7.1c-0.7-1.8-3.6-1-2.9,0.8
				c0.1,0.3,1.8,4.2,1.8,4.2c0.8,0.1,1.6,0.2,2.4,0.3c-1.9-3.3-3.8-6.7-5.6-10.1C99,50.7,96.4,52.2,97.3,53.9L97.3,53.9z"/>
			<path class="st4" d="M69.3,104.5c-0.5-3.8-1.1-7.6-1.6-11.3c-0.9,0.4-1.8,0.8-2.7,1.2c1.5,3.2,2.4,6.5,2.8,10
				c1-0.1,2-0.3,2.9-0.4c-0.9-4.6-1.9-9.3-2.8-13.9c-0.9,0.4-1.8,0.8-2.7,1.2c1.8,4.3,3.4,8.6,4.8,13c0.6,1.9,3.2,1.1,2.9-0.8
				c-0.8-5.1-1.6-10.2-2.4-15.3c-0.9,0.4-1.8,0.8-2.7,1.2c1.8,4.2,3.4,8.4,4.6,12.8c0.4,1.6,3.1,1.3,2.9-0.4
				c-0.5-4.7-0.9-9.4-1.4-14.2c-1,0.1-2,0.3-2.9,0.4c1.8,4.7,3.6,9.5,5.5,14.2c0.6,1.4,3.1,1.4,2.9-0.4c-0.5-4.5-1.3-9-2.4-13.4
				c-0.9,0.4-1.8,0.8-2.7,1.2c1.6,3.2,3.2,6.4,4.8,9.6c0.8,1.6,3,0.4,2.7-1.2c-0.9-5.1-2-10.2-3.3-15.2c-0.9,0.4-1.8,0.8-2.7,1.2
				c2.1,4.4,4.1,8.8,6.2,13.2c0.8,1.7,3,0.4,2.7-1.2c-0.8-5.2-1.8-10.4-3-15.6c-0.9,0.4-1.8,0.8-2.7,1.2c2.2,4.3,4,8.6,5.7,13.1
				c0.7,1.8,3.2,1.1,2.9-0.8c-0.8-5.5-1.9-11-3.4-16.4c-0.9,0.4-1.8,0.8-2.7,1.2c1.7,3.8,3.6,7.4,5.9,10.8c0.8,1.2,2.8,0.8,2.8-0.8
				c-0.1-5.9-1.5-11.3-4.2-16.5c-0.9,0.5-1.7,1-2.6,1.5c2.4,3.2,4.6,6.6,6.6,10c0.7,1.3,2.8,0.7,2.8-0.8c0-5.3-0.7-10.4-2.1-15.5
				c-0.9,0.4-1.8,0.8-2.7,1.2c2.2,3.1,4.2,6.2,6,9.6c0.7,1.2,3,0.8,2.8-0.8c-0.7-6-1.9-11.9-3.8-17.7c-0.8,0.5-1.7,1-2.5,1.5
				c3.1,3.7,5.7,7.6,8,11.8c0.9,1.6,3,0.4,2.7-1.2c-0.7-4.6-1.7-9-3.2-13.4c-0.8,0.5-1.7,1-2.5,1.5c2,2.5,3.3,5.1,4.2,8.1
				c0.6,1.8,3.4,1.1,2.9-0.8c-1.1-4.4-1.9-8.7-2.5-13.2c-0.2-1.9-3.2-1.9-3,0c0.6,4.7,1.5,9.4,2.6,14c1-0.3,1.9-0.5,2.9-0.8
				c-1.1-3.5-2.7-6.5-5-9.4c-0.9-1.2-3,0.1-2.5,1.5c1.5,4.4,2.5,8.8,3.2,13.4c0.9-0.4,1.8-0.8,2.7-1.2c-2.4-4.4-5.2-8.5-8.4-12.4
				c-1-1.2-3,0.1-2.5,1.5c1.8,5.5,3.1,11.1,3.7,16.9c0.9-0.3,1.9-0.5,2.8-0.8c-1.8-3.3-3.8-6.5-6-9.6c-1-1.3-3.2-0.6-2.7,1.2
				c1.3,4.9,2,9.7,2,14.7c0.9-0.3,1.9-0.5,2.8-0.8c-2-3.5-4.2-6.8-6.6-10c-1.1-1.5-3.5-0.2-2.6,1.5c2.5,4.8,3.7,9.6,3.8,15
				c0.9-0.3,1.9-0.5,2.8-0.8c-2.3-3.5-4.2-7-5.9-10.8c-0.7-1.6-3.2-0.4-2.7,1.2c1.5,5.4,2.6,10.9,3.4,16.4c1-0.3,1.9-0.5,2.9-0.8
				c-1.7-4.7-3.7-9.3-6-13.8c-0.8-1.6-3.1-0.4-2.7,1.2c1.2,5.2,2.2,10.4,3,15.6c0.9-0.4,1.8-0.8,2.7-1.2c-2.1-4.4-4.1-8.8-6.2-13.2
				c-0.7-1.6-3.2-0.4-2.7,1.2c1.3,5,2.4,10.1,3.3,15.2c0.9-0.4,1.8-0.8,2.7-1.2c-1.6-3.2-3.2-6.4-4.8-9.6c-0.8-1.6-3.2-0.5-2.7,1.2
				c1.1,4.2,1.9,8.3,2.3,12.6c1-0.1,2-0.3,2.9-0.4c-1.8-4.7-3.6-9.5-5.5-14.2c-0.6-1.4-3.1-1.4-2.9,0.4c0.5,4.7,0.9,9.4,1.4,14.2
				c1-0.1,2-0.3,2.9-0.4c-1.3-4.6-2.9-9.1-4.9-13.5c-0.7-1.7-3-0.4-2.7,1.2c0.8,5.1,1.6,10.2,2.4,15.3c1-0.3,1.9-0.5,2.9-0.8
				c-1.5-4.7-3.2-9.2-5.1-13.8c-0.7-1.6-3.1-0.4-2.7,1.2c0.9,4.6,1.9,9.3,2.8,13.9c0.3,1.6,3.1,1.3,2.9-0.4
				c-0.5-4.1-1.5-7.8-3.2-11.5c-0.8-1.7-3-0.4-2.7,1.2c0.5,3.8,1.1,7.6,1.6,11.3C66.6,107.2,69.5,106.4,69.3,104.5L69.3,104.5z"/>
			<path class="st4" d="M44.4,119.6c0,0,0.1,0.1,0.1,0.1c0.2-0.7,0.4-1.4,0.5-2.1c-0.1,0-0.1,0.1-0.2,0.1c0.7,0.3,1.5,0.6,2.2,0.9
				c-0.5-1.2-0.1-3.2-0.2-4.4c-1,0.1-2,0.3-2.9,0.4c0.8,2,1.6,4,2.3,6c0.6,1.6,2.8,1.3,2.9-0.4c0.3-4.4,0-8.5-1-12.8
				c-1,0.3-1.9,0.5-2.9,0.8c1.4,3.6,2.6,7.1,3.6,10.8c0.4,1.6,3.1,1.3,2.9-0.4c-0.4-4.6-0.8-9.1-1.1-13.7c-0.9,0.3-1.9,0.5-2.8,0.8
				c2.5,3.7,3.9,7.6,5.1,11.9c0.5,1.9,3.2,1.1,2.9-0.8c-0.8-5.6-1.6-11.2-2.4-16.8c-1,0.3-1.9,0.5-2.9,0.8c1.7,5.9,3.7,11.8,6,17.6
				c0.6,1.4,3.1,1.4,2.9-0.4c-0.5-5.3-1.5-10.5-3-15.6c-1,0.3-1.9,0.5-2.9,0.8c1.4,4,2.8,8.1,4.2,12.1c0.6,1.8,3.3,1.1,2.9-0.8
				c-1.1-5.4-2.2-10.8-3.3-16.2c-0.9,0.4-1.8,0.8-2.7,1.2c2.8,4.5,4.4,9.5,5.9,14.5c0.6,1.9,3.2,1.1,2.9-0.8
				c-0.9-5.8-1.9-11.5-2.8-17.3c-1,0.3-1.9,0.5-2.9,0.8c1.9,4.8,3.8,9.6,5.9,14.4c0.7,1.7,3,0.4,2.7-1.2c-0.8-5.2-1.6-10.5-2.4-15.7
				c-0.9,0.4-1.8,0.8-2.7,1.2c1.9,4.2,2.9,8.4,3.3,13c0.2,1.9,3.1,2,3,0c-0.2-4.7-0.8-9.3-2-13.8c-0.5-1.9-3.4-1.1-2.9,0.8
				c1.1,4.3,1.8,8.6,1.9,13c1,0,2,0,3,0c-0.5-5.1-1.7-9.8-3.8-14.5c-0.7-1.7-3-0.4-2.7,1.2c0.8,5.2,1.6,10.5,2.4,15.7
				c0.9-0.4,1.8-0.8,2.7-1.2c-2-4.5-3.8-9.1-5.6-13.6c-0.7-1.8-3.2-1.1-2.9,0.8c0.9,5.8,1.9,11.5,2.8,17.3c1-0.3,1.9-0.5,2.9-0.8
				c-1.6-5.3-3.3-10.5-6.2-15.3c-0.9-1.5-3.1-0.5-2.7,1.2c1.1,5.4,2.2,10.8,3.3,16.2c1-0.3,1.9-0.5,2.9-0.8c-1.4-4-2.8-8.1-4.2-12.1
				c-0.6-1.8-3.5-1.1-2.9,0.8c1.5,4.8,2.5,9.7,2.9,14.8c1-0.1,2-0.3,2.9-0.4c-2.2-5.8-4.2-11.6-6-17.6c-0.6-1.9-3.2-1.1-2.9,0.8
				c0.8,5.6,1.6,11.2,2.4,16.8c1-0.3,1.9-0.5,2.9-0.8c-1.3-4.5-2.7-8.7-5.4-12.6c-0.8-1.1-2.9-0.9-2.8,0.8c0.4,4.6,0.8,9.1,1.1,13.7
				c1-0.1,2-0.3,2.9-0.4c-1-3.7-2.2-7.3-3.6-10.8c-0.7-1.8-3.3-1.1-2.9,0.8c0.9,4,1.2,7.9,0.9,12c1-0.1,2-0.3,2.9-0.4
				c-0.8-2-1.6-4-2.3-6c-0.6-1.5-3-1.4-2.9,0.4c0,1.6-0.3,3.7,0.3,5.2c0.4,0.9,1.3,1.4,2.2,0.9c0.1,0,0.1-0.1,0.2-0.1
				c0.6-0.4,1-1.4,0.5-2.1c0,0-0.1-0.1-0.1-0.1C45.8,116.5,43.2,118,44.4,119.6L44.4,119.6z"/>
			<path class="st4" d="M60.9,123.5c1-0.6,1.6-1.9,1.1-3c-0.3-0.8-1-1.3-1.8-1c-0.7,0.2-1.3,1.1-1,1.8c0.1,0.2,0.1,0.2,0,0
				c0-0.2,0-0.2,0-0.1c0,0.1,0,0.1,0-0.1c0-0.1,0.1-0.1,0.2-0.2c-0.7,0.4-1,1.3-0.5,2.1C59.2,123.7,60.2,123.9,60.9,123.5
				L60.9,123.5z"/>
			<path class="st4" d="M59.7,109.8c0.6,3.9,1.3,7.7,2.3,11.5c0.5,1.7,2.8,1.2,2.9-0.4c0.3-3.1,0.4-6.1,0.3-9.2
				c-1,0.1-2,0.3-2.9,0.4c0.5,2.1,1,4.3,1.5,6.4c0.4,1.5,2.5,1.4,2.9,0c0.5-1.8,0.7-3.6,0.5-5.5c-1,0.1-2,0.3-2.9,0.4
				c0.4,1.7,1,3.3,1.8,4.8c0.7,1.4,2.8,0.7,2.8-0.8c0-2,0-4,0-6c-1,0.1-2,0.3-2.9,0.4c0.3,1.3,0.7,2.5,1.1,3.7
				c0.3,0.8,0.2,1.2,0.4,1.9c0.3,1.4,1.4,2.6,3,2.2c3.5-0.8,1.9-6-1.5-4.8c-1.8,0.7-1,3.6,0.8,2.9c1.5-0.6,0.6-2.1,0.2-3.1
				c-0.5-1.2-0.8-2.5-1.1-3.7c-0.4-1.7-3-1.3-2.9,0.4c0,2,0,4,0,6c0.9-0.3,1.9-0.5,2.8-0.8c-0.7-1.3-1.1-2.7-1.5-4.1
				c-0.4-1.6-3.2-1.3-2.9,0.4c0.2,1.6,0.1,3.1-0.4,4.7c1,0,1.9,0,2.9,0c-0.5-2.1-1-4.3-1.5-6.4c-0.4-1.6-3-1.3-2.9,0.4
				c0.1,3.1,0,6.1-0.3,9.2c1-0.1,2-0.3,2.9-0.4c-1-3.8-1.8-7.6-2.3-11.5C62.4,107.1,59.5,107.9,59.7,109.8L59.7,109.8z"/>
			<path class="st4" d="M44.4,100.1c0.6,1.8,1.2,3.7,1.9,5.5c0.5,1.6,2.9,1.3,2.9-0.4c0.1-2.6-0.1-5.1-0.7-7.6
				c-1,0.3-1.9,0.5-2.9,0.8c0.6,2.2,1.6,4.3,2.8,6.3c0.6,1,2.6,1,2.7-0.4c0.2-1.5,0.4-3.1,0.4-4.6c-0.9,0.3-1.9,0.5-2.8,0.8
				c0.6,0.8,1.1,1.5,1.7,2.3c0.8,1.1,2.9,0.9,2.8-0.8c0-0.1,0-0.2,0-0.3c0.8-1.7-1.7-3.2-2.6-1.5c-0.3,0.6-0.5,1.2-0.4,1.8
				c0.9-0.3,1.9-0.5,2.8-0.8c-0.6-0.8-1.1-1.5-1.7-2.3c-0.9-1.2-2.7-0.8-2.8,0.8c0,1.3-0.1,2.5-0.3,3.8c0.9-0.1,1.8-0.2,2.7-0.4
				c-1.1-1.7-2-3.6-2.5-5.5c-0.5-1.9-3.3-1.1-2.9,0.8c0.5,2.2,0.7,4.5,0.6,6.8c1-0.1,2-0.3,2.9-0.4c-0.6-1.8-1.2-3.7-1.9-5.5
				C46.7,97.4,43.8,98.2,44.4,100.1L44.4,100.1z"/>
		</g>
	</g>
</g>
<g id="Layer_1">
	<g class="st3">
		<path d="M92.1,25.1c-0.8-1-2.4,0-2.1,1.2c1.2,4.9,1.7,9.8,1.7,14.6c0-2.3-0.2-4.6-0.6-6.9c-0.3-5.1-1.6-9.9-4.5-13.9c0,0,0,0,0,0
			c0,0,0,0,0,0c-0.1-0.1-0.1-0.2-0.2-0.3c-0.9-1.2-2.7,0.2-2.1,1.5c1.8,3.5,3.1,7.2,3.9,11c0.4,4.4-0.1,9-0.8,13.2
			c-1.3,7.4-3.8,14.6-7.4,21.2c-3.7,6.7-8.4,12.7-14,17.8c-2.9,2.6-6.1,5-9.4,7.1c-1.8,1.1-3.5,2-4.9,3.4c-0.2,0.1-0.3,0.2-0.4,0.4
			c-0.5,0.5-0.9,1.1-1.3,1.7c-0.5,0.9,0.3,2.3,1.4,1.9c13.2-4.2,24-12.6,31.5-23.2c2.1-2.5,4-5.2,5.7-8.1
			C95.5,55.8,101.5,37.3,92.1,25.1z M89.5,56c-2.1,7.5-5.6,14.5-10.3,20.6c-2,2.3-4.2,4.4-6.5,6.4c6.1-6,11.2-12.9,14.7-20.8
			C88.2,60.1,88.9,58.1,89.5,56z M93.9,34.8c1,4.6,0.7,9.6-0.4,14.6C94.2,44.6,94.4,39.7,93.9,34.8z"/>
		<path d="M112,48.4c0.1-4.3-0.2-8.6-1.1-12.8c-0.5-2.7-1-7.9-3.8-9.2c-0.5-0.3-1.2-0.3-1.7,0.2c-0.7,0.7-0.8,1.2-0.6,2.2
			c0.1,0.6,0.7,1,1.3,1.1c0.1,0,0.2,0,0.3,0c0,0,0.1,0,0.1,0c0.4,0.8,0.7,1.8,0.9,2.8c-0.8-1.4-1.8-2.6-2.9-3.8
			c-0.4-0.4-0.9-0.5-1.3-0.3c-0.8-1.1-1.7-2.1-2.7-3.1c-1.1-1.1-2.7,0.2-2.1,1.5c4.4,9.6,6.1,20.3,5,30.7
			c-1.1,7.4-3.3,14.6-6.5,21.3c-7.7,14.2-21.1,24.5-36.5,29c-0.8,0.2-0.5,1.5,0.3,1.3c8.2-1.9,15.9-5.6,22.6-10.8
			c-1.8,1.8-3.6,3.5-5.6,5.2c-0.6,0.5-1.2,1-1.9,1.4c-3.2,1.9-6.5,3.6-10,4.9c-1.4,0.5-1.2,2.3,0.1,2.5c0,0.9,0.9,1.8,2,1.2
			c1.5-0.8,2.9-1.7,4.4-2.7c11.8-4,20.5-13.8,26.8-24.6c1.8-2.7,3.5-5.6,4.9-8.5c0.1-0.2,0.2-0.4,0.3-0.6c0.6-1.2,1.2-2.3,1.7-3.5
			C109.6,65.6,111.8,57.1,112,48.4z M105.7,60.7c1.1-6,1.5-12.1,1.1-18.3c2.6,12.2-1.5,26-7.1,37.2c-0.2,0.4-0.4,0.7-0.7,1.1
			c0.8-1.7,1.6-3.4,2.3-5.1C103.4,70.8,104.9,65.8,105.7,60.7z"/>
		<path d="M85.3,119.4c0.7-0.8,0.5-2.3-0.8-2.3c-7.3,0.4-14.7,1-22,1.9c-6.5,0.6-13,1.1-19.6,1.7c0,0,0-0.1,0-0.1
			c0.1-0.4,0.1-0.9,0.2-1.3c3.5-14.5,5.5-29.4,7.5-44.2c0.2-1.5-2.3-1.9-2.6-0.4c-1.1,6.3-2.1,12.7-3.2,19
			c0.5-5.6,1.1-11.1,1.7-16.7c0.1-1.3-1.8-1.7-2.4-0.8c-0.7-0.3-1.8,0.1-1.9,1.1c-0.7,7.5-1.3,15-2,22.5c-1.2,7.5-2.4,15.1-3.6,22.6
			c0,0,0,0,0,0l0,0c0,0.1,0,0.2-0.1,0.3c-0.2,1,0.8,1.3,1.5,1.1c-0.1,0.9-0.2,1.9-0.3,2.8c-0.1,0.9,0.8,1.5,1.6,1.3
			c2.5-0.6,5.1-1.1,7.6-1.6c0.1,0.7,0.7,1.3,1.6,1.2c11.7-1.8,23.5-3.6,35.2-5.3c0.8-0.1,1.1-0.8,1-1.4
			C85.3,120.5,85.4,119.9,85.3,119.4z M45.3,124.1c-1.2,0.2-2.4,0.5-3.5,0.7c0,0,0,0,0,0c0.1-0.4,0.2-0.8,0.3-1.2
			c0.9,0,1.7-0.1,2.6-0.1C44.8,123.8,45,124,45.3,124.1z"/>
	</g>
</g>
</svg>
