<?xml version="1.0" encoding="utf-8"?>
<!-- Generator: Adobe Illustrator 18.1.1, SVG Export Plug-In . SVG Version: 6.00 Build 0)  -->
<!DOCTYPE svg PUBLIC "-//W3C//DTD SVG 1.1//EN" "http://www.w3.org/Graphics/SVG/1.1/DTD/svg11.dtd">
<svg version="1.1" xmlns="http://www.w3.org/2000/svg" xmlns:xlink="http://www.w3.org/1999/xlink" x="0px" y="0px"
	 viewBox="0 0 234 234" enable-background="new 0 0 234 234" xml:space="preserve">
<g id="Layer_1">
</g>
<g id="fondos">
	<circle fill="#9DC1CE" cx="117" cy="117" r="117"/>
</g>
<g id="Layer_8" display="none">
	<rect x="-472.7" y="-381" display="inline" fill="#CCCCCC" width="834" height="641.7"/>
</g>
<g id="Layer_1_copy">
</g>
<g id="Page_2">
</g>
<g id="Layer_5">
</g>
<g id="cognitive">
	<defs>
		<filter id="Adobe_OpacityMaskFilter" filterUnits="userSpaceOnUse" x="13.6" y="32.7" width="231.5" height="228">
			<feColorMatrix  type="matrix" values="1 0 0 0 0  0 1 0 0 0  0 0 1 0 0  0 0 0 1 0"/>
		</filter>
	</defs>
	<mask maskUnits="userSpaceOnUse" x="13.6" y="32.7" width="231.5" height="228" id="SVGID_1_">
		<g filter="url(#Adobe_OpacityMaskFilter)">
			<circle fill="#FFFFFF" cx="117" cy="117" r="117"/>
		</g>
	</mask>
	<g mask="url(#SVGID_1_)">
		<g>
			<circle fill="none" cx="88.9" cy="100.2" r="65.9"/>
			<circle fill="#FFFFFF" cx="88.9" cy="94.2" r="20.5"/>
			<circle fill="#FFFFFF" cx="142.9" cy="137.9" r="13.1"/>
			<circle fill="#FFFFFF" cx="88.9" cy="166.1" r="13.1"/>
			<circle fill="#FFFFFF" cx="42.6" cy="146.3" r="13.1"/>
			<circle fill="#FFFFFF" cx="152.8" cy="83.8" r="13.1"/>
			<circle fill="#FFFFFF" cx="40.1" cy="59.2" r="26.5"/>
			<line fill="#FFFFFF" stroke="#FFFFFF" stroke-width="1.0011" stroke-miterlimit="10" x1="88.9" y1="94.2" x2="88.9" y2="166.1"/>
			
				<line fill="#FFFFFF" stroke="#FFFFFF" stroke-width="1.0011" stroke-miterlimit="10" x1="88.9" y1="94.2" x2="142.9" y2="137.9"/>
			<line fill="#FFFFFF" stroke="#FFFFFF" stroke-width="1.0011" stroke-miterlimit="10" x1="88.9" y1="94.2" x2="152.8" y2="83.8"/>
			<line fill="#FFFFFF" stroke="#FFFFFF" stroke-width="1.0011" stroke-miterlimit="10" x1="88.9" y1="94.2" x2="42.7" y2="148.3"/>
			<line fill="#FFFFFF" stroke="#FFFFFF" stroke-width="1.0011" stroke-miterlimit="10" x1="88.9" y1="94.2" x2="30" y2="53"/>
		</g>
		<g>
			<circle fill="none" cx="204.9" cy="121.8" r="34.4"/>
			<circle fill="#FFFFFF" cx="204.9" cy="118.7" r="10.7"/>
			<circle fill="#FFFFFF" cx="233.1" cy="141.5" r="6.8"/>
			<circle fill="#FFFFFF" cx="204.9" cy="156.2" r="6.8"/>
			<circle fill="#FFFFFF" cx="180.8" cy="145.8" r="6.8"/>
			<circle fill="#FFFFFF" cx="238.3" cy="113.3" r="6.8"/>
			<circle fill="#FFFFFF" cx="179.5" cy="100.4" r="13.8"/>
			
				<line fill="#FFFFFF" stroke="#FFFFFF" stroke-width="0.5222" stroke-miterlimit="10" x1="204.9" y1="118.7" x2="204.9" y2="156.2"/>
			
				<line fill="#FFFFFF" stroke="#FFFFFF" stroke-width="0.5222" stroke-miterlimit="10" x1="204.9" y1="118.7" x2="233.1" y2="141.5"/>
			
				<line fill="#FFFFFF" stroke="#FFFFFF" stroke-width="0.5222" stroke-miterlimit="10" x1="204.9" y1="118.7" x2="238.3" y2="113.3"/>
			
				<line fill="#FFFFFF" stroke="#FFFFFF" stroke-width="0.5222" stroke-miterlimit="10" x1="204.9" y1="118.7" x2="180.8" y2="146.9"/>
			
				<line fill="#FFFFFF" stroke="#FFFFFF" stroke-width="0.5222" stroke-miterlimit="10" x1="204.9" y1="118.7" x2="174.2" y2="97.2"/>
		</g>
		<g>
			<circle fill="none" cx="129.3" cy="219.5" r="34.4"/>
			<circle fill="#FFFFFF" cx="129.3" cy="216.3" r="10.7"/>
			<circle fill="#FFFFFF" cx="157.4" cy="239.1" r="6.8"/>
			<circle fill="#FFFFFF" cx="162.6" cy="210.9" r="6.8"/>
			<circle fill="#FFFFFF" cx="103.9" cy="198.1" r="13.8"/>
			
				<line fill="#FFFFFF" stroke="#FFFFFF" stroke-width="0.5222" stroke-miterlimit="10" x1="129.3" y1="216.3" x2="129.3" y2="253.8"/>
			
				<line fill="#FFFFFF" stroke="#FFFFFF" stroke-width="0.5222" stroke-miterlimit="10" x1="129.3" y1="216.3" x2="157.4" y2="239.1"/>
			
				<line fill="#FFFFFF" stroke="#FFFFFF" stroke-width="0.5222" stroke-miterlimit="10" x1="129.3" y1="216.3" x2="162.6" y2="210.9"/>
			
				<line fill="#FFFFFF" stroke="#FFFFFF" stroke-width="0.5222" stroke-miterlimit="10" x1="129.3" y1="216.3" x2="105.2" y2="244.6"/>
			
				<line fill="#FFFFFF" stroke="#FFFFFF" stroke-width="0.5222" stroke-miterlimit="10" x1="129.3" y1="216.3" x2="98.5" y2="194.8"/>
		</g>
	</g>
</g>
<g id="tarta">
</g>
</svg>
