<?xml version="1.0" encoding="utf-8"?>
<!-- Generator: Adobe Illustrator 18.1.1, SVG Export Plug-In . SVG Version: 6.00 Build 0)  -->
<!DOCTYPE svg PUBLIC "-//W3C//DTD SVG 1.1//EN" "http://www.w3.org/Graphics/SVG/1.1/DTD/svg11.dtd">
<svg version="1.1" xmlns="http://www.w3.org/2000/svg" xmlns:xlink="http://www.w3.org/1999/xlink" x="0px" y="0px"
	 viewBox="0 0 234 234" enable-background="new 0 0 234 234" xml:space="preserve">
<g id="Layer_1">
</g>
<g id="Layer_1_copy">
	<g id="fondos">
	</g>
</g>
<g id="Page_2">
</g>
<g id="Layer_5">
</g>
<g id="cognitive">
</g>
<g id="tarta">
	<polyline id="Triangulo" display="none" fill="#FFFFFF" points="286.2,214.7 117,117 286.2,19.3 	"/>
	<circle id="Circulo" display="none" fill="#FFFFFF" cx="117" cy="117" r="84.1"/>
	<path d="M117,0C52.4,0,0,52.4,0,117s52.4,117,117,117c64.6,0,117-52.4,117-117S181.6,0,117,0z M117,201.1
		c-46.4,0-84.1-37.6-84.1-84.1S70.6,32.9,117,32.9c31.1,0,58.3,16.9,72.8,42L117,117l72.8,42C175.3,184.2,148.1,201.1,117,201.1z
		 M156.5,117l49.4-28.5c4.9,8.4,7.7,18.1,7.7,28.5s-2.8,20.1-7.7,28.5L156.5,117z"/>
</g>
</svg>
