<?xml version="1.0" encoding="utf-8"?>
<!-- Generator: Adobe Illustrator 18.1.1, SVG Export Plug-In . SVG Version: 6.00 Build 0)  -->
<!DOCTYPE svg PUBLIC "-//W3C//DTD SVG 1.1//EN" "http://www.w3.org/Graphics/SVG/1.1/DTD/svg11.dtd">
<svg version="1.1" xmlns="http://www.w3.org/2000/svg" xmlns:xlink="http://www.w3.org/1999/xlink" x="0px" y="0px"
	 viewBox="0 0 234 234" enable-background="new 0 0 234 234" xml:space="preserve">
<g id="Layer_1">
</g>
<g id="Layer_1_copy">
	<g id="fondos">
	</g>
	<g>
		<path d="M2.2,139.7L13.9,128c-1.2-2.6-1.9-5.5-1.9-8.6c0-11.3,9.2-20.5,20.5-20.5c11.3,0,20.5,9.2,20.5,20.5c0,2.9-0.6,5.6-1.6,8
			l24.5,24.5c3.3-2.2,7.3-3.6,11.5-3.6c4,0,7.6,1.1,10.8,3.1l65.5-65.5c-2.2-3.3-3.5-7.2-3.5-11.4c0-11.3,9.2-20.5,20.5-20.5
			c11.3,0,20.5,9.2,20.5,20.5c0,3.9-1.1,7.5-3,10.6l35.8,35.8c0-1.3,0.1-2.6,0.1-3.9C234,52.4,181.6,0,117,0S0,52.4,0,117
			C0,124.7,0.8,132.3,2.2,139.7L2.2,139.7z"/>
		<path d="M188.9,93.2c-2.5,1.1-5.4,1.8-8.3,1.8c-2.6,0-5.1-0.5-7.4-1.4l-67.1,67.1c1.1,2.5,1.7,5.3,1.7,8.2
			c0,11.3-9.2,20.5-20.5,20.5c-11.3,0-20.5-9.2-20.5-20.5c0-2.6,0.5-5,1.4-7.3l-24.9-24.9c-3.2,2-6.9,3.2-10.9,3.2
			c-3.8,0-7.3-1-10.3-2.8L5.8,153.3l0,0C21.1,200.2,65.1,234,117,234c57.9,0,106-42.1,115.4-97.4L188.9,93.2z"/>
	</g>
</g>
<g id="Page_2">
</g>
<g id="Layer_5">
</g>
<g id="cognitive">
</g>
<g id="tarta">
</g>
</svg>
