<?xml version="1.0" encoding="utf-8"?>
<!-- Generator: Adobe Illustrator 18.1.1, SVG Export Plug-In . SVG Version: 6.00 Build 0)  -->
<!DOCTYPE svg PUBLIC "-//W3C//DTD SVG 1.1//EN" "http://www.w3.org/Graphics/SVG/1.1/DTD/svg11.dtd">
<svg version="1.1" xmlns="http://www.w3.org/2000/svg" xmlns:xlink="http://www.w3.org/1999/xlink" x="0px" y="0px"
	 viewBox="0 0 234 234" enable-background="new 0 0 234 234" xml:space="preserve">
<g id="Layer_1">
</g>
<g id="fondos">
	<circle fill="#9DC1CE" cx="117" cy="117" r="117"/>
</g>
<g id="Layer_8" display="none">
	<rect x="-88" y="-381" display="inline" fill="#CCCCCC" width="834" height="641.7"/>
</g>
<g id="Layer_1_copy">
</g>
<g id="Page_2">
</g>
<g id="Layer_5">
</g>
<g id="cognitive">
</g>
<g id="tarta">
	<path id="trozo" opacity="0.75" fill="#FFFFFF" d="M209.8,159c7.2-12.4,11.3-26.7,11.3-42s-4.1-29.7-11.3-42L137,117L209.8,159z"/>
	<polyline id="Triangulo" display="none" fill="#FFFFFF" points="286.2,214.7 117,117 286.2,19.3 	"/>
	<circle id="Circulo" display="none" fill="#FFFFFF" cx="117" cy="117" r="84.1"/>
	<path fill="#FFFFFF" d="M117,117l72.8-42c-14.5-25.1-41.7-42-72.8-42c-46.4,0-84.1,37.6-84.1,84.1s37.6,84.1,84.1,84.1
		c31.1,0,58.3-16.9,72.8-42L117,117z"/>
</g>
</svg>
