<?xml version="1.0" encoding="utf-8"?>
<!-- Generator: Adobe Illustrator 18.1.1, SVG Export Plug-In . SVG Version: 6.00 Build 0)  -->
<!DOCTYPE svg PUBLIC "-//W3C//DTD SVG 1.1//EN" "http://www.w3.org/Graphics/SVG/1.1/DTD/svg11.dtd">
<svg version="1.1" xmlns="http://www.w3.org/2000/svg" xmlns:xlink="http://www.w3.org/1999/xlink" x="0px" y="0px"
	 viewBox="0 0 234 234" enable-background="new 0 0 234 234" xml:space="preserve">
<g id="Layer_1">
</g>
<g id="Layer_1_copy">
	<g id="fondos">
	</g>
</g>
<g id="Page_2">
	<g>
		<g>
			<path d="M117,5.3C55.4,5.3,5.3,55.4,5.3,117c0,61.6,50.1,111.7,111.7,111.7S228.7,178.6,228.7,117C228.7,55.4,178.6,5.3,117,5.3z
				 M96.2,117.3c0-11.3,9.2-20.5,20.5-20.5c11.3,0,20.5,9.2,20.5,20.5c0,11.3-9.2,20.5-20.5,20.5C105.4,137.8,96.2,128.6,96.2,117.3
				z M113,90.9V30.3h7.5v60.7H113z M139.2,132.5l40.6,45.1l-9.7,8.7l-40.6-45.1L139.2,132.5z M116.7,217.4v-6
				c51.9,0,94.1-42.2,94.1-94.1c0-51.9-42.2-94.1-94.1-94.1s-94.1,42.2-94.1,94.1c0,18.1,5.1,35.5,14.8,50.7l6.9-5.6L48,186
				l-22.4-8.5l7-5.7c-10.5-16.2-16.1-35-16.1-54.5c0-55.2,44.9-100.1,100.1-100.1s100.1,44.9,100.1,100.1
				C216.9,172.5,171.9,217.4,116.7,217.4z M117,0.8C52.8,0.8,0.8,52.8,0.8,117s52,116.2,116.2,116.2s116.2-52,116.2-116.2
				S181.2,0.8,117,0.8z M117,230.7c-62.7,0-113.7-51-113.7-113.7S54.3,3.3,117,3.3s113.7,51,113.7,113.7S179.7,230.7,117,230.7z"/>
		</g>
	</g>
</g>
<g id="Layer_5">
</g>
<g id="cognitive">
</g>
<g id="tarta">
</g>
</svg>
