<?xml version="1.0" encoding="utf-8"?>
<!-- Generator: Adobe Illustrator 18.1.1, SVG Export Plug-In . SVG Version: 6.00 Build 0)  -->
<!DOCTYPE svg PUBLIC "-//W3C//DTD SVG 1.1//EN" "http://www.w3.org/Graphics/SVG/1.1/DTD/svg11.dtd">
<svg version="1.1" xmlns="http://www.w3.org/2000/svg" xmlns:xlink="http://www.w3.org/1999/xlink" x="0px" y="0px"
	 viewBox="0 0 234 234" enable-background="new 0 0 234 234" xml:space="preserve">
<g id="Layer_1">
</g>
<g id="Layer_1_copy">
	<g id="fondos">
	</g>
</g>
<g id="Page_2">
</g>
<g id="Layer_5">
</g>
<g id="cognitive">
	<g>
		<path d="M222.3,101.2c1.9,1.7,3,3.8,3.4,6.2l7.8-0.8c-0.5-6-1.5-11.9-2.9-17.6l-8.6,12C222.1,101,222.2,101.1,222.3,101.2z"/>
		<path d="M234,117c0-3.2-0.1-6.4-0.4-9.5l-7.8,0.8c0.1,2.6-0.7,5.2-2.5,7.3c0,0-0.1,0.1-0.1,0.1l10.5,10.5
			C233.9,123.2,234,120.1,234,117z"/>
		<path d="M222.5,116.5c-1.6,1.4-3.5,2.3-5.6,2.6l1.4,18.1c1.4,0.1,2.9,0.8,4,1.9c2.6,2.6,2.6,6.7,0,9.3c-2.6,2.6-6.7,2.6-9.3,0
			c-2.6-2.6-2.6-6.7,0-9.3c1.2-1.2,2.7-1.8,4.3-1.9l-1.4-18c-2.5,0.1-5-0.7-7.1-2.5c-1.7-1.5-2.8-3.4-3.2-5.5l-6.4,1.1
			c0.4,3.9-0.8,7.9-3.8,10.8c-5.2,5.2-13.6,5.2-18.7,0c-5.2-5.2-5.2-13.6,0-18.7c5.2-5.2,13.6-5.2,18.7,0c2,2,3.2,4.4,3.7,6.9
			l6.4-1.1c-0.4-2.8,0.4-5.7,2.4-8c3.4-3.9,9.1-4.6,13.3-1.8l9.1-12.7c0,0,0,0,0-0.1c-0.1-0.1-0.3-0.2-0.4-0.3
			c-1.8-1.8-2.3-4.3-1.6-6.5C213,33.8,168.9,0,117,0C85.3,0,56.5,12.6,35.4,33.1c1.5-0.3,3.1-0.4,4.7-0.4
			c14.6,0,26.5,11.9,26.5,26.5c0,5.6-1.7,10.7-4.6,15l10.7,7.5c3.5-4.5,8.7-7.5,14.8-7.9c10.3-0.7,19.3,6.4,21.4,16.2l30.9-5
			c0-0.4-0.1-0.7-0.1-1.1c0-7.2,5.9-13.1,13.1-13.1c7.2,0,13.1,5.9,13.1,13.1c0,7.2-5.9,13.1-13.1,13.1c-6.2,0-11.4-4.3-12.7-10
			l-30.9,5c0,0.3,0.1,0.6,0.1,0.9c0.3,5-1.2,9.7-3.9,13.5l27.9,22.6c2.4-2.5,5.8-4.1,9.5-4.1c7.2,0,13.1,5.9,13.1,13.1
			c0,7.2-5.9,13.1-13.1,13.1c-7.2,0-13.1-5.9-13.1-13.1c0-2.8,0.9-5.3,2.3-7.5l-27.9-22.6c-3.4,3.9-8.3,6.4-13.9,6.8
			c-0.1,0-0.3,0-0.4,0V153c6.8,0.5,12.1,6.2,12.1,13.1c0,7.2-5.9,13.1-13.1,13.1c-7.2,0-13.1-5.9-13.1-13.1
			c0-6.9,5.3-12.6,12.1-13.1v-38.4c-4.3-0.2-8.3-1.8-11.5-4.3L52.8,138c1.8,2.3,2.9,5.1,2.9,8.3c0,7.2-5.9,13.1-13.1,13.1
			c-7.2,0-13.1-5.9-13.1-13.1c0-7.2,5.9-13.1,13.1-13.1c3.4,0,6.5,1.3,8.8,3.4l23.4-27.4c-3.6-3.4-6.1-8.2-6.4-13.5
			c-0.3-4.5,0.9-8.7,3.1-12.3l-10.7-7.5c-4.9,6.1-12.3,9.9-20.7,9.9c-13.7,0-25-10.4-26.4-23.8C5,78.3,0,97.1,0,117
			c0,37.4,17.6,70.8,45,92.2l0.7-4.8c-3.8-0.8-7.2-3.3-9-7.1c-3.2-6.6-0.6-14.5,6-17.8s14.5-0.6,17.8,6c3.2,6.6,0.6,14.5-6,17.8
			c-2.5,1.2-5.2,1.6-7.7,1.2l-0.8,5.3C65.6,225,90.2,234,117,234c4.6,0,9.1-0.3,13.6-0.8c-2.7-0.8-4.7-3.3-4.7-6.3
			c0-3.6,2.9-6.6,6.6-6.6c1.7,0,3.2,0.6,4.4,1.7l11.7-13.7c-1.8-1.7-3-4.1-3.2-6.8c-0.2-2.3,0.4-4.4,1.6-6.1l-5.4-3.8
			c-2.4,3-6.2,5-10.3,5c-7.3,0-13.3-5.9-13.3-13.3s5.9-13.3,13.3-13.3s13.3,5.9,13.3,13.3c0,2.8-0.9,5.4-2.3,7.5l5.3,3.7
			c1.7-2.2,4.4-3.7,7.4-4c5.2-0.3,9.7,3.2,10.7,8.1l15.4-2.5c0-0.2,0-0.4,0-0.6c0-3.6,2.9-6.6,6.6-6.6c3.6,0,6.6,2.9,6.6,6.6
			s-2.9,6.6-6.6,6.6c-3.1,0-5.7-2.1-6.4-5l-15.4,2.5c0,0.2,0,0.3,0.1,0.5c0.2,2.5-0.6,4.9-2,6.7l13.1,10.6
			c31.4-18.7,53.2-51.7,56.6-90L222.5,116.5z"/>
		<path d="M135.9,232.5c6.6-1.1,13-2.7,19.1-4.8v-16.5c-2.2-0.1-4.1-0.9-5.8-2.1l-11.8,13.8c0.9,1.1,1.5,2.6,1.5,4.1
			C139,229.3,137.7,231.3,135.9,232.5z"/>
		<path d="M163.2,207.7c-1.7,1.9-4.2,3.2-7,3.4c-0.1,0-0.1,0-0.2,0v16.2c7-2.5,13.6-5.6,19.9-9.2L163.2,207.7z"/>
	</g>
</g>
<g id="tarta">
</g>
</svg>
