<?xml version="1.0" encoding="utf-8"?>
<!-- Generator: Adobe Illustrator 18.1.1, SVG Export Plug-In . SVG Version: 6.00 Build 0)  -->
<!DOCTYPE svg PUBLIC "-//W3C//DTD SVG 1.1//EN" "http://www.w3.org/Graphics/SVG/1.1/DTD/svg11.dtd">
<svg version="1.1" xmlns="http://www.w3.org/2000/svg" xmlns:xlink="http://www.w3.org/1999/xlink" x="0px" y="0px"
	 viewBox="0 0 234 234" enable-background="new 0 0 234 234" xml:space="preserve">
<g id="Layer_1">
</g>
<g id="Layer_1_copy">
	<g id="fondos">
	</g>
</g>
<g id="Page_2">
</g>
<g id="Layer_5">
</g>
<g id="cognitive">
	<g>
		<g>
			<path d="M117,0C88,0,61.5,10.6,41,28c14.3,0.4,25.7,12.1,25.7,26.5c0,5.2-1.5,10-4.1,14.1l10.7,7.5c3.5-4,8.5-6.7,14.2-7.1
				c10-0.7,18.7,5.9,21.2,15.2l30.8-5c0-5,2.8-9.8,7.6-12.2c6.8-3.4,15.1-0.7,18.5,6.1c1.2,2.4,1.7,5,1.4,7.5l6.7,1
				c0.7-2.7,2.4-5.1,4.9-6.6c4.5-2.6,10.1-1.6,13.4,2.1l13.2-9.6c0,0,0,0,0,0c-1.7-3.4-0.3-7.5,3-9.2c3.4-1.7,7.5-0.3,9.2,3
				c1.7,3.4,0.3,7.5-3,9.2c-2.7,1.4-5.9,0.8-7.9-1.3l-13.2,9.6c1.2,2.1,1.6,4.4,1.4,6.6l18.4,4c0.6-1.5,1.7-2.9,3.3-3.6
				c3.4-1.7,7.5-0.3,9.2,3c1.7,3.4,0.3,7.5-3,9.2c-3.4,1.7-7.5,0.3-9.2-3c-0.6-1.1-0.8-2.3-0.7-3.5l-18.4-4
				c-0.7,2.3-2.3,4.3-4.4,5.7l9,17.9c0.9-0.3,1.8-0.4,2.7-0.3c3.5,0.1,6.5,2.7,6.9,6.3c0.2,1.4-0.1,2.7-0.6,3.9l3.1,1.7
				c0.8-1.2,2.1-2.1,3.6-2.4c2.7-0.5,5.2,1,6.2,3.4l8.2-2.3c0,0,0,0,0,0c-0.2-1.9,1.2-3.7,3.1-3.9c0.7-0.1,1.4,0,2,0.3
				c0-0.3,0-0.5,0-0.8C234,52.4,181.6,0,117,0z M229.2,122.5l-8.2,2.3c0.2,1.2,0,2.4-0.5,3.5l8.3,5.2c0.6-0.6,1.3-1.1,2.3-1.2
				c0.7-0.1,1.3,0,1.9,0.3c0.4-2.8,0.6-5.5,0.8-8.4c-0.3,0.1-0.6,0.2-0.9,0.2C231.3,124.7,229.8,123.8,229.2,122.5z M228,136.3
				c-0.1-0.6,0-1.3,0.3-1.8l-8.3-5.2c-0.8,1-1.9,1.7-3.2,2l1.2,10.4c1.7,0.1,3.2,1.4,3.4,3.1c0.2,1.9-1.2,3.7-3.1,3.9
				s-3.7-1.2-3.9-3.1c-0.2-1.8,0.9-3.4,2.6-3.8l-1.2-10.4c-1,0-1.9-0.2-2.7-0.7l-5.5,8.2c0.5,0.5,0.8,1.2,0.9,1.9
				c0.2,1.9-1.2,3.7-3.1,3.9c-1.9,0.2-3.7-1.2-3.9-3.1c-0.2-1.9,1.2-3.7,3.1-3.9c0.8-0.1,1.6,0.1,2.2,0.5l5.4-8.1
				c-1-0.8-1.7-1.9-1.9-3.3c-0.2-1.1-0.1-2.2,0.3-3.2l-3.2-1.7c-1.1,1.7-2.9,2.8-5.1,3.1c-3.8,0.5-7.3-2.2-7.9-6
				c-0.6-2.7,0.4-5.5,2.7-7.1l-9-17.9c-1.7,0.7-3.6,0.9-5.3,0.6l-4.5,18.5c1.2,0.6,2.2,1.6,2.8,2.9c1.7,3.4,0.3,7.5-3,9.2
				c-3.4,1.7-7.5,0.3-9.2-3s-0.3-7.5,3-9.2c1.4-0.7,2.9-0.9,4.4-0.6l4.5-18.2c-2.3-0.8-4.3-2.4-5.6-4.6c-1.1-1.9-1.6-3.9-1.5-5.9
				l-6.8-1c-0.9,3.7-3.4,7.1-7.2,8.9c-6.8,3.4-15.1,0.7-18.5-6.1c-0.4-0.8-0.7-1.5-0.9-2.3l-30.7,5c0.3,4.6-1,9-3.4,12.6l28.1,22.8
				c2.3-2.1,5.4-3.4,8.8-3.4c7.2,0,13.1,5.9,13.1,13.1c0,7.2-5.9,13.1-13.1,13.1c-7.2,0-13.1-5.9-13.1-13.1c0-2.4,0.7-4.7,1.8-6.6
				l-28.1-22.8c-3.3,3.3-7.6,5.5-12.6,6v38.6c3.2,0.5,6.1,2.2,8.1,4.6c2.5,2.7,4,6.3,3.8,10.3c-0.2,2.7-1.1,5.2-2.5,7.2l5.4,4.2
				c1.9-2,4.6-3.2,7.6-3.3c5.2-0.1,9.6,3.6,10.6,8.5l16.3-1.7c0,0,0,0,0-0.1c0.2-3.8,3.4-6.6,7.2-6.4c3.8,0.2,6.6,3.4,6.4,7.2
				c-0.2,3.8-3.4,6.6-7.2,6.4c-3-0.2-5.5-2.3-6.2-5.1l-16.3,1.7c0,2.4-0.8,4.6-2.1,6.4l13.4,12.1c0.2-0.1,0.3-0.3,0.5-0.4
				c3.2-2.4,7.7-1.7,10,1.5c0.8,1.1,1.3,2.4,1.4,3.7l3.5-0.1c0.1-1.4,0.7-2.8,1.9-3.8c2.1-1.8,5-1.8,7.1-0.1l5.9-6.1c0,0,0,0,0,0
				c-1.2-1.6-0.8-3.8,0.7-5c1.6-1.2,3.8-0.8,5,0.7c1.2,1.6,0.8,3.8-0.7,5c-1.3,0.9-2.9,0.9-4.2,0.1l-5.9,6.1c0.8,1,1.2,2.1,1.3,3.3
				l9.8,0.4c0.2-0.8,0.6-1.6,1.4-2.2c1.6-1.2,3.8-0.8,5,0.7c1.2,1.6,0.8,3.8-0.7,5c-1.6,1.2-3.8,0.8-5-0.7c-0.4-0.5-0.6-1.1-0.7-1.7
				l-9.8-0.4c-0.2,1.2-0.8,2.4-1.8,3.3l6.2,8.4c1.5-0.8,3.4-0.4,4.5,1c0.3,0.5,0.5,1,0.6,1.5c30.9-16.2,53.7-45.9,60.6-81.3
				C229.9,139.6,228.2,138.2,228,136.3z M159,210.4c-0.8,0.5-1.8,0.8-2.7,0.8l-0.6,9.9c0.7,0.2,1.3,0.6,1.7,1.2
				c1.1,1.4,0.9,3.4-0.4,4.7c2.8-1,5.5-2.1,8.2-3.3c-0.1-0.1-0.2-0.2-0.2-0.3c-1.1-1.4-0.9-3.4,0.3-4.6L159,210.4z M150.7,206.4
				l-3.6,0.1c-0.1,1.3-0.6,2.6-1.4,3.7c-1.3,1.9-3.6,3.2-6,3c-1.2-0.1-2.3-0.4-3.3-1.1c-0.8-0.5-1.6-1.1-2.2-1.9
				c-1.8-2.4-1.9-5.6-0.4-8L120.4,190c-1.8,1.6-4.1,2.6-6.7,2.7l-1.1,20c3.2,0.7,5.6,3.6,5.4,7.1c-0.2,3.8-3.4,6.6-7.2,6.4
				c-3.8-0.2-6.6-3.4-6.4-7.2c0.2-3.4,2.9-6.1,6.2-6.4l1.1-20c-1.8-0.3-3.5-1-4.9-2.1l-13.1,13.7c0.7,1.1,1.1,2.5,1,3.9
				c-0.2,3.8-3.4,6.6-7.2,6.4c-3.8-0.2-6.6-3.4-6.4-7.2s3.4-6.6,7.2-6.4c1.6,0.1,3,0.7,4.1,1.7l13-13.6c-1.6-1.8-2.5-4.2-2.6-6.8
				c0-2.2,0.6-4.2,1.7-5.9l-5.4-4.3c-2.7,2.8-6.5,4.4-10.7,4.2c-7.6-0.4-13.4-6.9-13-14.5c0.1-2.5,1-4.9,2.3-6.9
				c2-3.4,5.4-5.8,9.4-6.4v-38.6c-3.6-0.3-6.9-1.6-9.7-3.6l-23.7,27.8c1.5,2.1,2.3,4.7,2.3,7.4c0,7.2-5.9,13.1-13.1,13.1
				c-7.2,0-13.1-5.9-13.1-13.1c0-7.2,5.9-13.1,13.1-13.1c3,0,5.8,1,8,2.8l23.5-27.5c-3.2-3.4-5.4-7.8-5.7-12.8
				c-0.3-4.1,0.7-8.1,2.6-11.4l-10.8-7.6c-4.9,5.6-12,9.2-20,9.2c-12.5,0-23-8.7-25.8-20.4C5.2,77.4,0,96.6,0,117
				c0,64.6,52.4,117,117,117c13,0,25.5-2.1,37.2-6c-1-0.1-1.9-0.6-2.5-1.4c-1.2-1.6-0.8-3.8,0.7-5c0.7-0.5,1.4-0.7,2.2-0.7l0.6-9.7
				c-1.2-0.2-2.4-0.8-3.3-1.9C151.2,208.4,150.8,207.4,150.7,206.4z"/>
		</g>
	</g>
</g>
<g id="tarta">
</g>
</svg>
