<?xml version="1.0" encoding="utf-8"?>
<!-- Generator: Adobe Illustrator 18.1.1, SVG Export Plug-In . SVG Version: 6.00 Build 0)  -->
<!DOCTYPE svg PUBLIC "-//W3C//DTD SVG 1.1//EN" "http://www.w3.org/Graphics/SVG/1.1/DTD/svg11.dtd">
<svg version="1.1" xmlns="http://www.w3.org/2000/svg" xmlns:xlink="http://www.w3.org/1999/xlink" x="0px" y="0px"
	 viewBox="0 0 234 234" enable-background="new 0 0 234 234" xml:space="preserve">
<g id="Layer_1">
</g>
<g id="Layer_1_copy">
	<g id="fondos">
	</g>
</g>
<g id="Page_2">
	<path d="M227.9,117c0,61.2-49.6,110.9-110.9,110.9S6.1,178.2,6.1,117S55.7,6.1,117,6.1S227.9,55.7,227.9,117z M217.1,117
		c0-55.2-44.9-100.1-100.1-100.1S16.8,61.8,16.8,117S61.8,217.1,117,217.1S217.1,172.2,217.1,117z M211.1,117
		c0,51.9-42.2,94.1-94.1,94.1S22.8,168.9,22.8,117c0-51.9,42.2-94.1,94.1-94.1S211.1,65.1,211.1,117z M117,96.5
		c-11.3,0-20.5,9.2-20.5,20.5s9.2,20.5,20.5,20.5s20.5-9.2,20.5-20.5S128.3,96.5,117,96.5z M120.7,30h-7.5v60.7h7.5V30z M180,177.3
		l-40.6-45.1l-9.7,8.7l40.6,45.1L180,177.3z"/>
</g>
<g id="Layer_5">
</g>
<g id="cognitive">
</g>
<g id="tarta">
</g>
</svg>
