<?xml version="1.0" encoding="utf-8"?>
<!-- Generator: Adobe Illustrator 18.1.1, SVG Export Plug-In . SVG Version: 6.00 Build 0)  -->
<!DOCTYPE svg PUBLIC "-//W3C//DTD SVG 1.1//EN" "http://www.w3.org/Graphics/SVG/1.1/DTD/svg11.dtd">
<svg version="1.1" xmlns="http://www.w3.org/2000/svg" xmlns:xlink="http://www.w3.org/1999/xlink" x="0px" y="0px"
	 viewBox="0 0 234 234" enable-background="new 0 0 234 234" xml:space="preserve">
<g id="Layer_1">
</g>
<g id="fondos">
	<circle fill="#9DC1CE" cx="117" cy="117" r="117"/>
</g>
<g id="Layer_8" display="none">
	<rect x="-88" y="-64" display="inline" fill="#CCCCCC" width="834" height="641.7"/>
</g>
<g id="Layer_1_copy">
	<path fill="#FFFFFF" d="M233.9,120.9l-35.8-35.8c1.9-3.1,3-6.7,3-10.6c0-11.3-9.2-20.5-20.5-20.5c-11.3,0-20.5,9.2-20.5,20.5
		c0,4.2,1.3,8.2,3.5,11.4l-65.5,65.5c-3.1-1.9-6.8-3.1-10.8-3.1c-4.3,0-8.2,1.3-11.5,3.6l-24.5-24.5c1.1-2.5,1.6-5.2,1.6-8
		c0-11.3-9.2-20.5-20.5-20.5C21.1,98.9,12,108,12,119.4c0,3.1,0.7,6,1.9,8.6L2.2,139.7c0.9,4.7,2.1,9.2,3.6,13.7L22.1,137
		c3,1.8,6.6,2.8,10.3,2.8c4,0,7.7-1.2,10.9-3.2l24.9,24.9c-0.9,2.3-1.4,4.7-1.4,7.3c0,11.3,9.2,20.5,20.5,20.5
		c11.3,0,20.5-9.2,20.5-20.5c0-2.9-0.6-5.7-1.7-8.2l67.1-67.1c2.3,0.9,4.8,1.4,7.4,1.4c3,0,5.8-0.6,8.3-1.8l43.4,43.4
		C233.2,131.5,233.7,126.2,233.9,120.9z"/>
</g>
<g id="Page_2">
</g>
<g id="Layer_5">
</g>
<g id="cognitive">
</g>
<g id="tarta">
</g>
</svg>
