<?xml version="1.0" encoding="utf-8"?>
<!-- Generator: Adobe Illustrator 18.1.1, SVG Export Plug-In . SVG Version: 6.00 Build 0)  -->
<svg version="1.1" id="Layer_1" xmlns="http://www.w3.org/2000/svg" xmlns:xlink="http://www.w3.org/1999/xlink" x="0px" y="0px"
	 viewBox="-49 141 512 512" enable-background="new -49 141 512 512" xml:space="preserve">
<g id="icomoon-ignore">
	<line opacity="0.3" fill="none" stroke="#449FDB" enable-background="new    " x1="-33" y1="141" x2="-33" y2="653"/>
	<line fill="none" stroke="#449FDB" x1="-17" y1="141" x2="-17" y2="653"/>
	<line opacity="0.3" fill="none" stroke="#449FDB" enable-background="new    " x1="-1" y1="141" x2="-1" y2="653"/>
	<line fill="none" stroke="#449FDB" x1="15" y1="141" x2="15" y2="653"/>
	<line opacity="0.3" fill="none" stroke="#449FDB" enable-background="new    " x1="31" y1="141" x2="31" y2="653"/>
	<line fill="none" stroke="#449FDB" x1="47" y1="141" x2="47" y2="653"/>
	<line opacity="0.3" fill="none" stroke="#449FDB" enable-background="new    " x1="63" y1="141" x2="63" y2="653"/>
	<line fill="none" stroke="#449FDB" x1="79" y1="141" x2="79" y2="653"/>
	<line opacity="0.3" fill="none" stroke="#449FDB" enable-background="new    " x1="95" y1="141" x2="95" y2="653"/>
	<line fill="none" stroke="#449FDB" x1="111" y1="141" x2="111" y2="653"/>
	<line opacity="0.3" fill="none" stroke="#449FDB" enable-background="new    " x1="127" y1="141" x2="127" y2="653"/>
	<line fill="none" stroke="#449FDB" x1="143" y1="141" x2="143" y2="653"/>
	<line opacity="0.3" fill="none" stroke="#449FDB" enable-background="new    " x1="159" y1="141" x2="159" y2="653"/>
	<line fill="none" stroke="#449FDB" x1="175" y1="141" x2="175" y2="653"/>
	<line opacity="0.3" fill="none" stroke="#449FDB" enable-background="new    " x1="191" y1="141" x2="191" y2="653"/>
	<line fill="none" stroke="#449FDB" x1="207" y1="141" x2="207" y2="653"/>
	<line opacity="0.3" fill="none" stroke="#449FDB" enable-background="new    " x1="223" y1="141" x2="223" y2="653"/>
	<line fill="none" stroke="#449FDB" x1="239" y1="141" x2="239" y2="653"/>
	<line opacity="0.3" fill="none" stroke="#449FDB" enable-background="new    " x1="255" y1="141" x2="255" y2="653"/>
	<line fill="none" stroke="#449FDB" x1="271" y1="141" x2="271" y2="653"/>
	<line opacity="0.3" fill="none" stroke="#449FDB" enable-background="new    " x1="287" y1="141" x2="287" y2="653"/>
	<line fill="none" stroke="#449FDB" x1="303" y1="141" x2="303" y2="653"/>
	<line opacity="0.3" fill="none" stroke="#449FDB" enable-background="new    " x1="319" y1="141" x2="319" y2="653"/>
	<line fill="none" stroke="#449FDB" x1="335" y1="141" x2="335" y2="653"/>
	<line opacity="0.3" fill="none" stroke="#449FDB" enable-background="new    " x1="351" y1="141" x2="351" y2="653"/>
	<line fill="none" stroke="#449FDB" x1="367" y1="141" x2="367" y2="653"/>
	<line opacity="0.3" fill="none" stroke="#449FDB" enable-background="new    " x1="383" y1="141" x2="383" y2="653"/>
	<line fill="none" stroke="#449FDB" x1="399" y1="141" x2="399" y2="653"/>
	<line opacity="0.3" fill="none" stroke="#449FDB" enable-background="new    " x1="415" y1="141" x2="415" y2="653"/>
	<line fill="none" stroke="#449FDB" x1="431" y1="141" x2="431" y2="653"/>
	<line opacity="0.3" fill="none" stroke="#449FDB" enable-background="new    " x1="447" y1="141" x2="447" y2="653"/>
	<line opacity="0.3" fill="none" stroke="#449FDB" enable-background="new    " x1="-49" y1="157" x2="463" y2="157"/>
	<line fill="none" stroke="#449FDB" x1="-49" y1="173" x2="463" y2="173"/>
	<line opacity="0.3" fill="none" stroke="#449FDB" enable-background="new    " x1="-49" y1="189" x2="463" y2="189"/>
	<line fill="none" stroke="#449FDB" x1="-49" y1="205" x2="463" y2="205"/>
	<line opacity="0.3" fill="none" stroke="#449FDB" enable-background="new    " x1="-49" y1="221" x2="463" y2="221"/>
	<line fill="none" stroke="#449FDB" x1="-49" y1="237" x2="463" y2="237"/>
	<line opacity="0.3" fill="none" stroke="#449FDB" enable-background="new    " x1="-49" y1="253" x2="463" y2="253"/>
	<line fill="none" stroke="#449FDB" x1="-49" y1="269" x2="463" y2="269"/>
	<line opacity="0.3" fill="none" stroke="#449FDB" enable-background="new    " x1="-49" y1="285" x2="463" y2="285"/>
	<line fill="none" stroke="#449FDB" x1="-49" y1="301" x2="463" y2="301"/>
	<line opacity="0.3" fill="none" stroke="#449FDB" enable-background="new    " x1="-49" y1="317" x2="463" y2="317"/>
	<line fill="none" stroke="#449FDB" x1="-49" y1="333" x2="463" y2="333"/>
	<line opacity="0.3" fill="none" stroke="#449FDB" enable-background="new    " x1="-49" y1="349" x2="463" y2="349"/>
	<line fill="none" stroke="#449FDB" x1="-49" y1="365" x2="463" y2="365"/>
	<line opacity="0.3" fill="none" stroke="#449FDB" enable-background="new    " x1="-49" y1="381" x2="463" y2="381"/>
	<line fill="none" stroke="#449FDB" x1="-49" y1="397" x2="463" y2="397"/>
	<line opacity="0.3" fill="none" stroke="#449FDB" enable-background="new    " x1="-49" y1="413" x2="463" y2="413"/>
	<line fill="none" stroke="#449FDB" x1="-49" y1="429" x2="463" y2="429"/>
	<line opacity="0.3" fill="none" stroke="#449FDB" enable-background="new    " x1="-49" y1="445" x2="463" y2="445"/>
	<line fill="none" stroke="#449FDB" x1="-49" y1="461" x2="463" y2="461"/>
	<line opacity="0.3" fill="none" stroke="#449FDB" enable-background="new    " x1="-49" y1="477" x2="463" y2="477"/>
	<line fill="none" stroke="#449FDB" x1="-49" y1="493" x2="463" y2="493"/>
	<line opacity="0.3" fill="none" stroke="#449FDB" enable-background="new    " x1="-49" y1="509" x2="463" y2="509"/>
	<line fill="none" stroke="#449FDB" x1="-49" y1="525" x2="463" y2="525"/>
	<line opacity="0.3" fill="none" stroke="#449FDB" enable-background="new    " x1="-49" y1="541" x2="463" y2="541"/>
	<line fill="none" stroke="#449FDB" x1="-49" y1="557" x2="463" y2="557"/>
	<line opacity="0.3" fill="none" stroke="#449FDB" enable-background="new    " x1="-49" y1="573" x2="463" y2="573"/>
	<line fill="none" stroke="#449FDB" x1="-49" y1="589" x2="463" y2="589"/>
	<line opacity="0.3" fill="none" stroke="#449FDB" enable-background="new    " x1="-49" y1="605" x2="463" y2="605"/>
	<line fill="none" stroke="#449FDB" x1="-49" y1="621" x2="463" y2="621"/>
	<line opacity="0.3" fill="none" stroke="#449FDB" enable-background="new    " x1="-49" y1="637" x2="463" y2="637"/>
</g>
<g>
	<g>
		<path d="M207,141.3C65.8,141.3-48.7,255.8-48.7,397S65.8,652.7,207,652.7S462.7,538.2,462.7,397S348.2,141.3,207,141.3z
			 M207,568.1c-94.5,0-171.1-76.6-171.1-171.1S112.5,225.9,207,225.9V397l153.1-76.5c11.5,23,18,49,18,76.5
			C378.1,491.5,301.5,568.1,207,568.1z M231.4,348.1V177c67,0,125,38.5,153.1,94.6L231.4,348.1z"/>
	</g>
</g>
</svg>
